<?xml version="1.0" encoding="utf-8"?>
<!-- Generator: Adobe Illustrator 16.0.0, SVG Export Plug-In . SVG Version: 6.00 Build 0)  -->
<!DOCTYPE svg PUBLIC "-//W3C//DTD SVG 1.1//EN" "http://www.w3.org/Graphics/SVG/1.1/DTD/svg11.dtd">
<svg version="1.1" id="Capa_1" xmlns="http://www.w3.org/2000/svg" xmlns:xlink="http://www.w3.org/1999/xlink" x="0px" y="0px"
	 width="29.622px" height="29.621px" viewBox="123.411 0.144 29.622 29.621" enable-background="new 123.411 0.144 29.622 29.621"
	 xml:space="preserve">
<g>
	<g>
		<g>
			
				<linearGradient id="SVGID_1_" gradientUnits="userSpaceOnUse" x1="-539.3145" y1="353.1133" x2="-539.6658" y2="353.1133" gradientTransform="matrix(13.8498 0 0 -13.2722 7609.707 4709.6958)">
				<stop  offset="0" style="stop-color:#A3F088"/>
				<stop  offset="1" style="stop-color:#7FDF5E"/>
			</linearGradient>
			<path fill="url(#SVGID_1_)" d="M139.225,29.186c1.502,0.961,3.48,0.705,4.688-0.607c1.646-1.79,1.646-4.539,0-6.328l-5.689-5.757
				l-5.69,5.757c-1.646,1.79-1.646,4.539,0,6.328c1.208,1.313,3.186,1.568,4.688,0.607
				C137.831,28.795,138.614,28.795,139.225,29.186z"/>
			
				<linearGradient id="SVGID_2_" gradientUnits="userSpaceOnUse" x1="-516.4014" y1="352.8984" x2="-516.0934" y2="353.4787" gradientTransform="matrix(6.9253 0 0 -13.2722 3711.2129 4709.6958)">
				<stop  offset="0" style="stop-color:#7FDF5E;stop-opacity:0"/>
				<stop  offset="1" style="stop-color:#24A856"/>
			</linearGradient>
			<path fill="url(#SVGID_2_)" d="M132.533,28.578c1.207,1.313,3.185,1.568,4.688,0.607c0.305-0.195,0.653-0.293,1.002-0.293V16.493
				l-5.689,5.757C130.887,24.04,130.887,26.789,132.533,28.578z"/>
		</g>
		<g>
			
				<linearGradient id="SVGID_3_" gradientUnits="userSpaceOnUse" x1="-585.3799" y1="396.8887" x2="-585.7314" y2="396.8887" gradientTransform="matrix(-13.8498 0 0 13.2722 -7971.2617 -5260.7896)">
				<stop  offset="0" style="stop-color:#A3F088"/>
				<stop  offset="1" style="stop-color:#7FDF5E"/>
			</linearGradient>
			<path fill="url(#SVGID_3_)" d="M137.221,0.724c-1.503-0.962-3.48-0.706-4.688,0.607c-1.646,1.79-1.646,4.539,0,6.328l5.689,5.757
				l5.69-5.757c1.646-1.79,1.646-4.539,0-6.328c-1.208-1.313-3.187-1.569-4.688-0.607C138.614,1.114,137.831,1.114,137.221,0.724z"
				/>
			
				<linearGradient id="SVGID_4_" gradientUnits="userSpaceOnUse" x1="-608.5283" y1="396.6748" x2="-608.2203" y2="397.255" gradientTransform="matrix(-6.9253 0 0 13.2722 -4072.7673 -5260.7896)">
				<stop  offset="0" style="stop-color:#7FDF5E;stop-opacity:0"/>
				<stop  offset="1" style="stop-color:#24A856"/>
			</linearGradient>
			<path fill="url(#SVGID_4_)" d="M143.912,1.331c-1.207-1.313-3.186-1.569-4.688-0.607c-0.306,0.195-0.654,0.293-1.002,0.293
				v12.399l5.689-5.757C145.559,5.869,145.559,3.12,143.912,1.331z"/>
		</g>
		<g>
			
				<linearGradient id="SVGID_5_" gradientUnits="userSpaceOnUse" x1="-583.3228" y1="350.9639" x2="-583.6745" y2="350.9639" gradientTransform="matrix(8.480527e-016 -13.8498 -13.2722 -8.126867e-016 4804.4614 -8066.0273)">
				<stop  offset="0" style="stop-color:#A3F088"/>
				<stop  offset="1" style="stop-color:#7FDF5E"/>
			</linearGradient>
			<path fill="url(#SVGID_5_)" d="M152.453,13.953c0.962-1.502,0.706-3.48-0.607-4.687c-1.789-1.647-4.539-1.647-6.328,0
				l-5.757,5.69l5.757,5.69c1.791,1.646,4.539,1.646,6.328,0c1.313-1.209,1.569-3.187,0.607-4.689
				C152.063,15.347,152.063,14.564,152.453,13.953z"/>
			
				<linearGradient id="SVGID_6_" gradientUnits="userSpaceOnUse" x1="-604.4131" y1="350.752" x2="-604.1051" y2="351.3322" gradientTransform="matrix(4.240493e-016 -6.9253 -13.2722 -8.126867e-016 4804.4614 -4167.5371)">
				<stop  offset="0" style="stop-color:#7FDF5E;stop-opacity:0"/>
				<stop  offset="1" style="stop-color:#24A856"/>
			</linearGradient>
			<path fill="url(#SVGID_6_)" d="M151.846,20.645c1.313-1.207,1.569-3.185,0.607-4.688c-0.195-0.305-0.293-0.653-0.293-1.002
				h-12.399l5.757,5.689C147.309,22.292,150.057,22.292,151.846,20.645z"/>
		</g>
		<g>
			
				<linearGradient id="SVGID_7_" gradientUnits="userSpaceOnUse" x1="-541.3721" y1="399.0361" x2="-541.7234" y2="399.0361" gradientTransform="matrix(8.480527e-016 13.8498 13.2722 -8.126867e-016 -5166.0239 7514.9414)">
				<stop  offset="0" style="stop-color:#A3F088"/>
				<stop  offset="1" style="stop-color:#7FDF5E"/>
			</linearGradient>
			<path fill="url(#SVGID_7_)" d="M123.991,15.957c-0.962,1.502-0.706,3.48,0.606,4.688c1.791,1.646,4.539,1.646,6.328,0l5.758-5.69
				l-5.758-5.69c-1.79-1.646-4.539-1.646-6.328,0c-1.313,1.208-1.568,3.186-0.606,4.689
				C124.381,14.563,124.381,15.346,123.991,15.957z"/>
			
				<linearGradient id="SVGID_8_" gradientUnits="userSpaceOnUse" x1="-520.5171" y1="398.8232" x2="-520.2091" y2="399.4035" gradientTransform="matrix(4.240493e-016 6.9253 13.2722 -8.126867e-016 -5166.0239 3616.447)">
				<stop  offset="0" style="stop-color:#7FDF5E;stop-opacity:0"/>
				<stop  offset="1" style="stop-color:#24A856"/>
			</linearGradient>
			<path fill="url(#SVGID_8_)" d="M124.598,9.265c-1.313,1.207-1.568,3.185-0.606,4.688c0.194,0.305,0.293,0.653,0.293,1.002h12.399
				l-5.758-5.69C129.136,7.618,126.387,7.618,124.598,9.265z"/>
		</g>
	</g>
</g>
</svg>
