<svg xmlns="http://www.w3.org/2000/svg" width="56" height="56" viewBox="0 0 56 56">
    <g fill="#35B447">
        <path d="M2.212 44.413c-.228-.5-.346-1.043-.345-1.593v-1.136c-.003-9.72 1.531-19.377 4.544-28.617h20.438c-.858 2.693-1.6 5.445-2.211 8.197l1.822.405c.642-2.892 1.433-5.782 2.352-8.602H30.8c2.06-.003 3.731-1.673 3.733-3.734v-2.8c0-.247-.098-.485-.273-.66-.175-.175-.412-.273-.66-.273h-4.667c.003-2.06 1.673-3.731 3.734-3.733h.169c1.682.002 3.156 1.128 3.601 2.75l1.374 5.037c.326 1.194.632 2.412.91 3.622l1.819-.418c-.284-1.234-.596-2.477-.928-3.696l-1.374-5.035C37.57 1.693 35.36.004 32.836 0H7.466c-3.09.003-5.596 2.509-5.6 5.6v3.733c.003 1.638 1.07 3.085 2.636 3.569C1.516 22.204-.003 31.914 0 41.684v1.136c-.001.817.174 1.624.513 2.367l1.7-.774zM32.667 7.467v1.866c0 1.031-.836 1.867-1.867 1.867-1.03 0-1.867-.836-1.867-1.867V7.467h3.734zM3.733 9.333V5.6c.003-2.06 1.673-3.731 3.734-3.733h21.03c-.922 1.025-1.432 2.355-1.43 3.733v3.733c-.001.656.172 1.3.5 1.867H5.6c-1.03-.001-1.865-.836-1.867-1.867z"/>
        <path d="M46.88 24.79l-.426 1.818c5.668 1.326 7.68 3.087 7.68 4.192 0 .95-1.35 2.053-3.843 3.027-.436-1.388-2.19-2.536-5.23-3.418l-.521 1.793c2.592.752 3.85 1.66 3.981 2.234-3.708 1.128-9.123 1.964-15.854 1.964-6.732 0-12.147-.836-15.855-1.964.186-.881 2.848-2.378 8.516-3.16l-.256-1.849c-2.843.393-5.26 1.001-6.988 1.76-1.703.748-2.722 1.633-3.041 2.64-2.494-.974-3.843-2.077-3.843-3.027 0-.393.32-1.791 4.447-3.26 3.143-1.118 7.55-1.9 12.41-2.2l-.115-1.863c-5.029.31-9.618 1.13-12.92 2.305-4.702 1.673-5.689 3.652-5.689 5.018-.001 1.966.365 3.916 1.079 5.748l1.888 4.857 1.74-.677-1.889-4.857c-.213-.548-.391-1.11-.534-1.681 1.197.8 2.854 1.515 4.95 2.126 4.313 1.258 10.03 1.95 16.1 1.95 6.069 0 11.787-.692 16.1-1.95 2.095-.611 3.752-1.326 4.95-2.126-.143.571-.322 1.133-.535 1.681l-3.204 8.24c-.304.781-.723 1.513-1.243 2.17l1.463 1.159c.636-.803 1.148-1.697 1.52-2.652l3.204-8.24c.714-1.832 1.08-3.782 1.078-5.748 0-3.373-5.715-5.213-9.12-6.01z"/>
        <path d="M39.47 17.567c-4.584 1.667-8.36 5.022-10.552 9.38l-2.686 5.37 1.67.835 2.685-5.37c1.864-3.702 4.997-6.61 8.827-8.193.047.182.107.36.181.532-2.574 2.168-4.888 5.122-6.566 8.404l-2.747 5.337 1.66.855 2.748-5.34c1.557-3.046 3.69-5.78 6.057-7.785.105.079.213.152.325.22.124.074.253.14.385.199-.373.7-.763 1.428-1.169 2.184-1.018 1.9-2.066 3.87-3.146 5.909l-2.116 3.992 1.649.874 2.118-3.994c1.074-2.041 2.12-4.007 3.14-5.9.483-.9.947-1.766 1.385-2.587.19 3.198-.525 6.384-2.063 9.194l-1.31 2.403 1.638.894 1.311-2.403c1.832-3.345 2.609-7.167 2.23-10.962.38-.279.7-.63.946-1.031L53.5 8.427c1.05-1.722.508-3.97-1.214-5.022-1.722-1.053-3.97-.51-5.023 1.211l-7.429 12.157c-.152.249-.275.516-.364.794zm1.957.179L48.856 5.59c.332-.546.931-.872 1.57-.856.639.015 1.22.37 1.526.932.305.561.288 1.243-.046 1.788L44.478 19.61c-.333.546-.932.872-1.57.856-.64-.015-1.221-.37-1.527-.932-.305-.561-.288-1.243.046-1.788zM46.464 46.89c-.725-.66-1.693-.987-2.67-.9l-.882.08c-1.185-1.947-3.3-3.135-5.579-3.137H10.267c-2.28.001-4.396 1.19-5.582 3.138l-.879-.08c-1.28-.117-2.52.48-3.228 1.552-.708 1.072-.77 2.446-.161 3.578.609 1.131 1.79 1.837 3.075 1.836.105 0 .21-.005.314-.014l.88-.08c1.19 1.942 3.302 3.129 5.58 3.137h27.067c1.734.005 3.397-.684 4.62-1.913.368-.368.692-.78.963-1.224l.879.08c.105.01.212.014.318.014 1.44-.001 2.73-.886 3.251-2.229.52-1.342.163-2.867-.9-3.838zM3.637 51.084c-.594.054-1.17-.223-1.5-.72-.33-.499-.36-1.137-.078-1.663.282-.527.83-.856 1.426-.858.05 0 .101.002.152.007l5.62.51c.572.053 1.01.532 1.01 1.107 0 .574-.438 1.054-1.01 1.106l-5.62.51zm3.237 1.58l2.551-.232c1.534-.14 2.708-1.425 2.708-2.965 0-1.54-1.174-2.826-2.707-2.966l-2.557-.232.098-.102c1.494-1.494 3.804-1.798 5.633-.741 1.83 1.056 2.721 3.209 2.174 5.249-.546 2.04-2.395 3.458-4.507 3.458-1.285-.004-2.511-.536-3.393-1.47zm33.759.103c-.873.878-2.061 1.37-3.3 1.366h-22.5c1.258-1.227 1.967-2.91 1.967-4.666 0-1.757-.71-3.44-1.967-4.667h22.5c1.888 0 3.59 1.137 4.312 2.881.722 1.744.323 3.751-1.012 5.086zm3.48-1.676c-.05 0-.101-.003-.15-.007l-.29-.026c.26-1.045.258-2.138-.003-3.182l.292-.027c.595-.054 1.172.223 1.502.721.33.498.359 1.137.077 1.664-.282.526-.83.855-1.428.857z"/>
    </g>
</svg>
