<svg xmlns="http://www.w3.org/2000/svg" width="56" height="56" viewBox="0 0 56 56">
    <g fill="#35B447">
        <path d="M31.733 2.8v.933h-1.866v-2.8c0-.515-.418-.933-.934-.933H8.4c-.515 0-.933.418-.933.933v3.734c0 .515.418.933.933.933h1.867v4.667c0 .515.418.933.933.933h4.667v1.96c-2.172.447-3.73 2.357-3.734 4.573 0 .516.418.934.934.934h11.2c.515 0 .933-.418.933-.934-.003-2.216-1.562-4.126-3.733-4.572V11.2h4.666c.516 0 .934-.418.934-.933v-.934h4.666v.934c0 .515.418.933.934.933H56V9.333H33.6v-5.6H56V1.867H32.667c-.516 0-.934.418-.934.933zm-22.4-.933H28v1.866H9.333V1.867zm6.534 13.228V16.8H14.16c.284-.796.91-1.422 1.707-1.705zm7.306 1.705h-1.706v-1.705c.796.283 1.422.91 1.706 1.705zm-3.573 0h-1.867v-5.6H19.6v5.6zm-7.467-7.467V5.6H25.2v3.733H12.133zm14.934-1.866V5.6h4.666v1.867h-4.666zM15.867 26.133c0-1.812-2.532-4.724-3.039-5.29-.177-.197-.43-.31-.695-.31-.265 0-.517.113-.694.31-.508.566-3.039 3.478-3.039 5.29 0 2.062 1.671 3.734 3.733 3.734 2.062 0 3.734-1.672 3.734-3.734zm-5.6 0c0-.595.877-1.984 1.866-3.221.99 1.237 1.867 2.626 1.867 3.221C14 27.164 13.164 28 12.133 28c-1.03 0-1.866-.836-1.866-1.867zM28.933 26.133c0-1.812-2.53-4.724-3.038-5.29-.177-.197-.43-.31-.695-.31-.265 0-.518.113-.695.31-.507.566-3.038 3.478-3.038 5.29 0 2.062 1.671 3.734 3.733 3.734 2.062 0 3.733-1.672 3.733-3.734zm-5.6 0c0-.595.878-1.984 1.867-3.221.99 1.237 1.867 2.626 1.867 3.221 0 1.031-.836 1.867-1.867 1.867-1.03 0-1.867-.836-1.867-1.867zM0 51.333C.003 53.91 2.09 55.997 4.667 56h28c2.576-.003 4.663-2.09 4.666-4.667 0-.515-.418-.933-.933-.933h-8.728c.66-.533 1.236-1.162 1.709-1.867h2.352c4.124 0 7.467-3.343 7.467-7.466 0-4.124-3.343-7.467-7.467-7.467H30.8v-.933c0-.516-.418-.934-.933-.934h-22.4c-.516 0-.934.418-.934.934v11.2c0 2.539 1.15 4.941 3.129 6.533H.933c-.515 0-.933.418-.933.933zm31.733-15.866c3.093 0 5.6 2.507 5.6 5.6 0 3.092-2.507 5.6-5.6 5.6h-1.415c.214-.604.358-1.23.429-1.867h.986c2.062 0 3.734-1.671 3.734-3.733 0-2.062-1.672-3.734-3.734-3.734H30.8v-1.866h.933zm-.933 7.466V39.2h.933c1.031 0 1.867.836 1.867 1.867 0 1.03-.836 1.866-1.867 1.866H30.8zm-22.4.934V33.6h20.533v10.267c-.004 3.606-2.926 6.529-6.533 6.533h-7.467c-3.606-.004-6.529-2.927-6.533-6.533zm26.907 8.4c-.397 1.118-1.454 1.865-2.64 1.866h-28c-1.187-.001-2.244-.748-2.64-1.866h33.28z"/>
    </g>
</svg>
