<svg xmlns="http://www.w3.org/2000/svg" width="64" height="32" viewBox="0 0 64 32">
    <path fill="#35B447" d="M59.733 11.733h-.45c-.473-2.269-1.39-4.422-2.7-6.334C54.18 1.968 50.662 0 46.932 0c-3.73 0-7.247 1.968-9.649 5.4-1.31 1.91-2.229 4.064-2.7 6.333h-4.102c-.472-2.269-1.39-4.422-2.7-6.334C25.38 1.968 21.863 0 18.133 0c-3.73 0-7.247 1.968-9.649 5.4-1.31 1.91-2.229 4.064-2.7 6.333H4.267C1.91 11.733 0 13.643 0 16c0 2.356 1.91 4.267 4.267 4.267h1.517c.471 2.27 1.39 4.422 2.7 6.334 2.402 3.431 5.92 5.399 9.65 5.399 3.73 0 7.246-1.968 9.648-5.4 1.31-1.911 2.228-4.064 2.7-6.333h4.102c.471 2.27 1.39 4.422 2.7 6.334 2.402 3.431 5.92 5.399 9.65 5.399 3.73 0 7.246-1.968 9.648-5.4 1.31-1.911 2.228-4.064 2.7-6.333h.451C62.09 20.267 64 18.357 64 16c0-2.356-1.91-4.267-4.267-4.267zm-9.6 8.534h3.59C52.646 23.464 50.41 25.6 48 25.6c-1.636 0-3.201-.948-4.406-2.67C42.308 21.095 41.6 18.633 41.6 16c0-2.632.708-5.094 1.994-6.93C44.799 7.347 46.364 6.4 48 6.4c2.41 0 4.646 2.136 5.723 5.333h-3.59c-2.356 0-4.266 1.91-4.266 4.267 0 2.356 1.91 4.267 4.266 4.267zM56 18.063c-.94-.243-1.598-1.091-1.6-2.063h-2.133c-.001.722.183 1.432.533 2.063-.94-.243-1.598-1.091-1.6-2.063h-2.133c-.001.722.183 1.432.533 2.063-1.04-.268-1.718-1.267-1.583-2.333.135-1.066 1.042-1.864 2.116-1.863h5.908c-.751 1.294-.766 2.888-.04 4.196zm-36.8 2.204h5.723C23.846 23.464 21.61 25.6 19.2 25.6c-1.636 0-3.201-.948-4.406-2.67C13.508 21.095 12.8 18.633 12.8 16c0-2.632.708-5.094 1.994-6.93C16 7.347 17.564 6.4 19.2 6.4c2.41 0 4.646 2.136 5.723 5.333H19.2c-2.356 0-4.267 1.91-4.267 4.267 0 2.356 1.91 4.267 4.267 4.267zm15.024-2.372c-.71-.366-1.156-1.097-1.157-1.895h-2.134c0 .722.183 1.432.534 2.063-.94-.243-1.599-1.091-1.6-2.063h-2.134c0 .722.183 1.432.534 2.063-.94-.243-1.599-1.091-1.6-2.063h-2.134c0 .722.183 1.432.534 2.063-.94-.243-1.599-1.091-1.6-2.063h-2.134c0 .722.183 1.432.534 2.063-.94-.243-1.599-1.091-1.6-2.063h-2.134c0 .722.183 1.432.534 2.063-1.04-.268-1.719-1.267-1.583-2.333.135-1.066 1.042-1.864 2.116-1.863h15.045c-.074.708-.111 1.42-.112 2.133 0 .637.033 1.27.09 1.895zm-29.957.238c-1.179 0-2.134-.955-2.134-2.133s.955-2.133 2.134-2.133h1.178c-.149 1.418-.149 2.848 0 4.266H4.267zm21.768 7.244c-1.997 2.853-4.877 4.49-7.902 4.49-3.024 0-5.904-1.637-7.901-4.49C8.449 22.83 7.467 19.5 7.467 16c0-3.5.982-6.83 2.765-9.377 1.997-2.853 4.877-4.49 7.901-4.49 3.025 0 5.905 1.637 7.902 4.49 1.062 1.55 1.828 3.282 2.259 5.11h-1.137c-1.261-4.5-4.382-7.466-7.957-7.466-2.353 0-4.538 1.27-6.154 3.579-1.534 2.192-2.38 5.088-2.38 8.154s.846 5.962 2.38 8.154c1.616 2.308 3.801 3.58 6.154 3.58 3.575 0 6.696-2.967 7.957-7.467h1.137c-.431 1.828-1.197 3.56-2.26 5.11zm28.8 0c-1.997 2.853-4.877 4.49-7.902 4.49-3.024 0-5.904-1.637-7.901-4.49C37.249 22.83 36.267 19.5 36.267 16c0-3.5.982-6.83 2.765-9.377 1.997-2.853 4.877-4.49 7.901-4.49 3.025 0 5.905 1.637 7.902 4.49 1.062 1.55 1.828 3.282 2.259 5.11h-1.138c-1.26-4.5-4.38-7.466-7.956-7.466-2.353 0-4.538 1.27-6.154 3.579-1.534 2.192-2.38 5.088-2.38 8.154s.846 5.962 2.38 8.154c1.616 2.308 3.801 3.58 6.154 3.58 3.575 0 6.696-2.967 7.956-7.467h1.138c-.431 1.828-1.197 3.56-2.26 5.11zm4.898-7.244c-1.178 0-2.133-.955-2.133-2.133s.955-2.133 2.133-2.133c1.179 0 2.134.955 2.134 2.133-.002 1.178-.956 2.132-2.134 2.133z"/>
</svg>
