<svg xmlns="http://www.w3.org/2000/svg" width="38" height="42" viewBox="0 0 38 42">
    <g fill="#35B447" stroke="#35B447" stroke-width=".3">
        <path d="M26.953 21.763c-.324 0-.586.262-.586.586 0 .323.262.585.586.585h1.615c.323 0 .586-.262.586-.585 0-.324-.263-.586-.586-.586h-1.615zM8.151 21.763c-.324 0-.586.262-.586.586 0 .323.262.585.586.585h1.615c.323 0 .586-.262.586-.585 0-.324-.263-.586-.586-.586H8.15zM24.85 16.686l1.142-1.142c.229-.228.229-.6 0-.828-.229-.23-.6-.229-.829 0l-1.141 1.142c-.229.228-.229.6 0 .828.228.229.6.229.828 0zM10.727 29.981c.229.23.6.229.828 0l1.142-1.141c.229-.23.229-.6 0-.83-.229-.228-.6-.228-.829 0l-1.141 1.142c-.23.23-.23.6 0 .83zM18.945 13.755V12.14c0-.323-.262-.586-.586-.586-.323 0-.586.263-.586.586v1.615c0 .323.263.586.586.586.324 0 .586-.263.586-.586zM11.868 16.686c.229.229.6.229.829 0 .229-.229.229-.6 0-.829l-1.142-1.141c-.229-.23-.6-.229-.828 0-.23.229-.23.6 0 .828l1.141 1.142zM25.163 29.981c.23.229.6.229.829 0 .229-.229.229-.6 0-.828L24.85 28.01c-.229-.229-.6-.229-.828 0-.23.229-.23.6 0 .829l1.141 1.141z" transform="translate(1 1)"/>
        <path d="M32.344 23.838c.323 0 .586-.262.586-.586v-5.97l.487.425c.811.709 2.047.626 2.756-.185.71-.813.628-2.046-.185-2.756l-3.058-2.673V3.34h.155c.583 0 1.057-.474 1.057-1.058V1.057C34.142.475 33.668 0 33.085 0h-5.411c-.583 0-1.058.474-1.058 1.058V2.28c0 .584.475 1.058 1.058 1.058h.155v4.297L19.645.482c-.733-.64-1.838-.64-2.57 0L.73 14.767c-.813.71-.896 1.943-.185 2.756.709.811 1.945.893 2.756.185l.487-.426v21.547H2.695c-.323 0-.586.262-.586.586 0 .324.263.586.586.586h31.328c.324 0 .586-.262.586-.586 0-.324-.262-.586-.586-.586H32.93V25.987c0-.324-.263-.586-.586-.586-.324 0-.586.262-.586.586v12.841H4.96V16.257l13.398-11.71 13.399 11.71v6.995c0 .324.262.586.586.586zM27.788 2.167v-.995h5.182v.995h-5.182 0zm3.97 1.172v7.73L29 8.66V3.34h2.757zm-12.797.178c-.343-.3-.86-.3-1.203 0L2.53 16.825c-.324.283-.819.25-1.102-.074-.284-.325-.252-.818.074-1.103L17.845 1.365c.293-.256.735-.256 1.028 0L31.958 12.8l3.258 2.847c.326.285.359.778.074 1.103-.283.324-.778.357-1.102.074L18.961 3.517h0z" transform="translate(1 1)"/>
        <path d="M23.358 26.973c1.22-1.285 1.892-2.97 1.892-4.743 0-3.278-2.301-6.041-5.397-6.726-.316-.07-.629.13-.699.446-.07.315.13.628.446.698 2.595.574 4.478 2.922 4.478 5.583 0 1.471-.558 2.869-1.57 3.936-.808.851-1.276 1.937-1.331 3.08h-2.232v-3.992h1.193c.323 0 .586-.262.586-.585 0-.324-.263-.586-.586-.586H16.58c-.323 0-.586.262-.586.586 0 .323.263.585.586.585h1.192v3.991h-2.231c-.056-1.156-.511-2.23-1.297-3.043-1.014-1.05-1.584-2.432-1.604-3.891-.037-2.693 1.846-5.075 4.479-5.663.316-.071.515-.384.444-.7-.07-.316-.384-.514-.7-.444-3.17.709-5.44 3.578-5.395 6.823.025 1.758.711 3.423 1.933 4.689.614.635.973 1.474.973 2.563-.353.28-.58.714-.58 1.2v.426c0 .617.366 1.148.893 1.391-.055.158-.087.327-.087.503v.427c0 .799.614 1.456 1.395 1.526.01.998.82 2.487 2.036 2.487h.654c1.218 0 2.027-1.49 2.037-2.487.78-.07 1.394-.727 1.394-1.526V33.1c0-.176-.031-.345-.086-.503.526-.243.893-.774.893-1.39v-.428c0-.485-.227-.918-.58-1.2 0-1.04.343-1.9 1.014-2.606h0zm-4.672 9.395h-.654c-.366 0-.85-.738-.865-1.308h2.384c-.014.57-.498 1.308-.865 1.308zm2.26-2.841c0 .2-.162.361-.362.361h-4.45c-.199 0-.36-.162-.36-.361V33.1c0-.2.161-.361.36-.361h4.45c.2 0 .361.162.361.361v.427zm.806-2.321c0 .2-.162.361-.36.361h-6.065c-.199 0-.36-.162-.36-.361v-.427c0-.205.17-.361.36-.361 6.427 0 6.08-.004 6.137.007l.016.005c.156.04.272.18.272.35v.426z" transform="translate(1 1)"/>
    </g>
</svg>
