<svg xmlns="http://www.w3.org/2000/svg" width="40" height="40" viewBox="0 0 40 40">
    <g fill="#35B447">
        <path d="M3.906 35.312c-.431 0-.781.35-.781.781 0 .432.35.782.781.782.432 0 .781-.35.781-.782 0-.431-.35-.781-.78-.781zM39.219 0h-6.25c-.432 0-.782.35-.782.781v.816l-1.042-.007h-.005c-.429 0-.778.347-.781.776-.003.432.345.784.776.787l1.052.006v8.106c-2.045 1.288-3.891.546-5.84-.239-1.284-.517-2.613-1.052-3.938-.885-.418.052-1.547.216-2.741.39-1.132.164-2.303.334-2.705.384-.205.026-.41-.031-.575-.16-.17-.132-.278-.322-.304-.534-.017-.139-.063-.506.916-.96 2.073-.962 4.281-1.784 6.06-2.258.417-.11.665-.539.554-.956-.11-.417-.539-.665-.956-.554-1.862.496-4.164 1.352-6.315 2.35-.748.347-1.208.75-1.48 1.158l-7.832 2.136c-.824.207-1.246-.121-1.368-.497-.119-.37.025-.848.614-1.081.614-.233 2.077-.878 3.929-1.692 2.454-1.08 5.508-2.425 7.943-3.413 2.894-1.174 3.776-1.35 6.739-1.34h.002c.43 0 .78-.348.782-.779 0-.431-.348-.782-.78-.783-3.16-.011-4.256.208-7.33 1.455-2.457.996-5.522 2.345-7.986 3.43-1.763.775-3.285 1.445-3.859 1.663l-.007.003c-1.46.573-1.876 1.95-1.534 3.015.337 1.05 1.497 1.976 3.246 1.532l.013-.004 7.15-1.95c.128.511.42.963.843 1.292.496.386 1.11.555 1.73.478.417-.053 1.542-.217 2.734-.39 1.135-.164 2.308-.334 2.711-.385.924-.116 2.01.321 3.16.785 1.219.49 2.607 1.05 4.11 1.05.745 0 1.52-.14 2.314-.493v.248c0 .432.35.781.782.781h6.25c.431 0 .781-.35.781-.78V.781C40 .35 39.65 0 39.219 0zm-.782 12.5H33.75V1.563h4.688V12.5z"/>
        <path d="M36.094 4.688c.431 0 .781-.35.781-.781 0-.432-.35-.782-.781-.782-.432 0-.782.35-.782.782 0 .431.35.781.782.781zM14.531 25.469c1.854 0 3.495-.929 4.484-2.344h2.887c.207 0 .405-.082.552-.229l1.334-1.334h.915l1.334 1.334c.146.147.345.229.552.229h1.224c.207 0 .405-.082.552-.229l2.344-2.344c.146-.146.229-.345.229-.552v-2.344c0-.431-.35-.781-.782-.781h-11.14c-.99-1.415-2.63-2.344-4.485-2.344-3.015 0-5.469 2.454-5.469 5.469s2.454 5.469 5.47 5.469zm14.844-7.032v1.24l-1.886 1.886h-.576l-1.334-1.334c-.147-.147-.345-.229-.552-.229h-1.563c-.207 0-.406.082-.552.229l-1.334 1.334h-1.807c.148-.496.229-1.02.229-1.563 0-.543-.08-1.067-.229-1.563h9.604zm-14.844-2.343c2.154 0 3.906 1.752 3.906 3.906s-1.752 3.906-3.906 3.906-3.906-1.752-3.906-3.906 1.752-3.906 3.906-3.906z"/>
        <path d="M12.969 20.781c.431 0 .781-.35.781-.781 0-.432-.35-.782-.781-.782-.432 0-.781.35-.781.782 0 .432.35.781.78.781zM28.015 3.133c.432 0 .781-.35.781-.781 0-.432-.35-.781-.78-.781-.432 0-.782.35-.782.781 0 .431.35.781.781.781zM32.578 27.35l-.013.004-7.15 1.95c-.128-.511-.42-.963-.843-1.292-.496-.386-1.11-.555-1.73-.478-.417.053-1.542.217-2.734.39-1.135.164-2.308.334-2.711.385-.923.116-2.01-.321-3.16-.785-1.824-.734-4.028-1.621-6.425-.558v-.247c0-.431-.35-.781-.78-.781H.781c-.432 0-.782.35-.782.781v12.5c0 .431.35.781.781.781h6.25c.432 0 .782-.35.782-.781v-.816l1.042.007h.005c.429 0 .778-.347.781-.777.003-.43-.345-.783-.776-.786l-1.053-.006v-8.106c2.046-1.288 3.892-.546 5.841.238 1.285.518 2.613 1.053 3.938.886.419-.052 1.547-.216 2.741-.39 1.132-.164 2.303-.334 2.705-.384.205-.026.41.03.575.16.17.132.278.322.304.534.017.139.063.506-.916.96-2.073.962-4.281 1.784-6.06 2.258-.417.11-.665.539-.554.956.111.417.54.664.956.554 1.862-.496 4.164-1.352 6.315-2.35.748-.347 1.208-.75 1.48-1.158l7.832-2.136c.823-.207 1.246.121 1.368.497.119.37-.025.848-.614 1.081-.613.233-2.077.878-3.929 1.693-2.454 1.08-5.508 2.424-7.943 3.412-2.894 1.174-3.778 1.351-6.739 1.34h-.002c-.43 0-.78.348-.782.779 0 .431.348.782.78.783h.188c3.017 0 4.13-.233 7.142-1.455 2.456-.996 5.522-2.345 7.985-3.43 1.764-.775 3.286-1.445 3.86-1.663l.007-.003c1.46-.573 1.876-1.95 1.534-3.015-.337-1.049-1.497-1.976-3.246-1.532zM1.562 38.437V27.5H6.25V38.438H1.562z"/>
        <path d="M11.985 36.867c-.432 0-.781.35-.781.781 0 .432.35.781.781.781.432 0 .781-.35.781-.781 0-.431-.35-.781-.78-.781z"/>
    </g>
</svg>
