<svg xmlns="http://www.w3.org/2000/svg" width="31" height="41" viewBox="0 0 31 41">
    <g fill="#35B447">
        <path d="M1.68 39.271C.973 39.01.266 38.262.072 37.577.01 37.354-.006 32.38.01 19.52L.033 1.771l.179-.33C.476.954.934.485 1.408.223L1.82 0h26.802l.412.231c.544.292 1.057.862 1.259 1.394l.155.423-.016 17.765-.023 17.764-.179.37c-.24.47-.761.985-1.235 1.224l-.373.177-13.324.015c-11.21.008-13.37-.008-13.618-.092zm8.258-4.466v-3.273H1.315v2.834c0 2.626.015 2.849.155 3.157.078.177.155.323.17.323.016 0 .164.054.335.116.256.085 1.01.108 4.14.116h3.823v-3.273zm9.245 0v-3.273H11.258v6.545H19.183v-3.272zm9.447 3.103c.474-.254.497-.43.497-3.565v-2.81H20.504v6.552l3.946-.023c3.543-.023 3.963-.039 4.18-.154zm.474-21.776c.023-13.252.015-14.068-.117-14.322-.078-.154-.248-.324-.404-.4-.256-.132-1.056-.14-13.362-.14-12.306 0-13.106.008-13.363.14-.155.076-.326.245-.404.4-.132.254-.14 1.1-.14 14.33V30.2l13.89-.007 13.884-.008.016-14.053z" transform="matrix(1 0 0 -1 0 40.514)"/>
        <path d="M5.277 37.315c-.669-.216-1.383-.824-1.718-1.47-.155-.285-.186-.463-.186-1.04 0-.832.171-1.256.753-1.833 1.072-1.062 2.657-1.047 3.683.039 1.04 1.108 1.033 2.549-.04 3.603-.52.516-1.01.724-1.716.747-.318.008-.667-.008-.776-.046zm1.398-1.41c.443-.3.567-.538.575-1.077.016-.87-.443-1.332-1.313-1.332-.87.007-1.328.5-1.266 1.394.039.561.194.839.613 1.047.389.2 1.065.184 1.391-.031zM23.673 37.27c-.42-.155-.94-.532-1.22-.879-1.08-1.347-.613-3.172 1.003-3.98.606-.309 1.406-.309 2.035-.016.544.254 1.127.816 1.383 1.332.163.323.194.493.194 1.078 0 .809-.132 1.124-.722 1.756-.52.554-1.135.824-1.841.816-.295 0-.676-.054-.832-.108zm1.624-1.395c.319-.23.49-.616.49-1.116 0-.478-.171-.809-.567-1.101-.303-.224-1.072-.224-1.453-.008-.396.239-.583.6-.583 1.17 0 .532.132.778.59 1.086.226.154.343.177.785.154.373-.023.583-.077.738-.185zM13.55 27.443c-2.594-.4-4.754-1.501-6.688-3.41-1.78-1.772-2.813-3.627-3.341-6.053-.21-.932-.21-3.527-.008-4.466.342-1.586 1.096-3.296 2.02-4.597.614-.847 2.012-2.249 2.774-2.772 1.911-1.301 3.744-1.98 5.95-2.187 3.629-.354 7.56 1.27 9.968 4.112 1.336 1.579 2.16 3.188 2.626 5.136.287 1.201.334 3.15.116 4.428-.435 2.51-1.507 4.528-3.387 6.399-1.755 1.732-3.55 2.726-5.943 3.28-.769.169-3.286.261-4.086.13zm3.885-1.416c2.098-.462 3.83-1.394 5.29-2.842 1.5-1.494 2.432-3.234 2.922-5.475.155-.739.132-3.31-.039-4.12-.458-2.132-1.46-3.934-2.99-5.405-2.658-2.549-6.31-3.511-10.023-2.641-3.892.924-6.899 4.035-7.761 8.047-.202.923-.194 3.388 0 4.296.552 2.495 1.895 4.66 3.814 6.13 1.407 1.078 3.023 1.794 4.63 2.048.32.046.638.1.7.116.319.077 2.96-.039 3.457-.154z" transform="matrix(1 0 0 -1 0 40.514)"/>
        <path d="M13.683 24.802c-3.613-.685-6.526-3.373-7.443-6.876-.28-1.047-.342-2.626-.148-3.696.249-1.37.94-2.996 1.655-3.866.847-1.032 1.002-1.209 1.29-1.463 1.126-1.032 2.688-1.825 4.242-2.171 4.304-.955 8.794 1.424 10.526 5.59 1.143 2.726.816 5.89-.854 8.409-.583.87-1.818 2.102-2.704 2.672-.847.554-1.84.993-2.828 1.255-.947.239-2.82.316-3.736.146zm2.944-1.316c3.364-.578 5.912-3.15 6.433-6.476l.085-.547-.738-.77c-.83-.87-1.592-1.432-2.548-1.871-1.181-.547-1.608-.624-4.094-.693-2.54-.077-3.038-.162-4.242-.724-.886-.416-1.328-.708-1.958-1.309-.272-.254-.513-.43-.544-.393-1.188 1.648-1.631 2.88-1.701 4.736-.031.947-.015 1.24.132 1.925.66 3.195 3.084 5.544 6.316 6.121.762.14 2.074.14 2.859 0zm6.176-10.05c-.839-2.895-3.286-5.012-6.339-5.474-.847-.131-2.455-.054-3.263.154-1.01.262-2.19.846-2.657 1.324l-.388.393.264.27c.14.146.388.369.551.5l.296.238.179-.169c.217-.208.66-.216.909-.015.124.1.178.23.194.477l.015.339.529.138c.295.078.994.154 1.569.185l1.04.046-.24-.238c-.45-.447-.202-1.094.42-1.094.613 0 .87.647.435 1.086l-.226.224h.676c1.259 0 2.618.33 3.83.931l.59.292.047-.184c.055-.2.397-.424.653-.424.233 0 .544.285.598.547.039.185.016.292-.117.478l-.178.23.38.332c.474.4.497.331.233-.585z" transform="matrix(1 0 0 -1 0 40.514)"/>
        <path d="M13.978 22.169c-1.561-.331-2.968-1.178-3.923-2.356-.785-.986-.987-1.571-.637-1.887.443-.4.854-.254 1.227.454.35.64 1.282 1.571 1.935 1.933.644.347 1.421.585 2.128.64.792.06.886.084 1.025.307.194.285.156.655-.085.863-.164.138-.295.17-.684.162-.264 0-.706-.055-.986-.116zM8.967 16.964c-.598-.34-.38-1.217.303-1.217.202 0 .311.054.466.238.264.309.257.57-.023.848-.241.23-.49.277-.746.13zM19.595 11.743c-.272-.116-.435-.424-.38-.732.061-.323.302-.5.675-.5.536 0 .808.624.443 1.032-.202.223-.49.3-.738.2zM13.465 9.633c-.45-.377-.155-1.125.443-1.125.334 0 .614.3.614.655 0 .57-.622.847-1.057.47zM17.435 9.625c-.404-.393-.124-1.117.42-1.117.357 0 .66.3.66.655 0 .57-.684.863-1.08.462z" transform="matrix(1 0 0 -1 0 40.514)"/>
    </g>
</svg>
