<svg xmlns="http://www.w3.org/2000/svg" width="42" height="41" viewBox="0 0 42 41">
    <g fill="#35B447" stroke="#35B447" stroke-width=".3">
        <path d="M33.008 20.751c-.321 0-.582.26-.582.582 0 .408-.332.74-.74.74-.407 0-.738-.332-.738-.74 0-.321-.261-.582-.582-.582-.322 0-.583.26-.583.582 0 1.05.854 1.903 1.904 1.903 1.05 0 1.903-.853 1.903-1.903 0-.322-.26-.582-.582-.582z" transform="translate(1 1)"/>
        <path d="M38.472 20.846l-1.638-.525c-.21-.067-.375-.235-.443-.448-.345-1.098-.866-2.128-1.548-3.063-.311-.427-.657-.834-1.035-1.221.242-1.06.373-2.26.356-3.297-.024-1.483-.32-2.353-.906-2.66-.315-.165-1.275-.667-6.467 1.71-.123.056-.238.125-.345.204-.35-.094-.707-.18-1.067-.259l-.132-.027c.42-.919.666-1.917.712-2.948.015-.321-.234-.593-.555-.608-.32-.015-.593.235-.608.556-.076 1.695-.779 3.289-1.979 4.49-.717.717-1.557 1.238-2.452 1.566-1.552-.218-3.134-.218-4.686 0-.895-.328-1.735-.85-2.452-1.566-1.28-1.281-1.986-2.984-1.986-4.795 0-1.812.705-3.515 1.986-4.795 1.28-1.281 2.984-1.987 4.795-1.987s3.514.706 4.795 1.987c.515.514.94 1.102 1.264 1.745.145.287.495.403.782.258.287-.144.403-.494.258-.782-.38-.754-.878-1.442-1.48-2.045C22.14.836 20.143.01 18.021.01s-4.117.826-5.618 2.327c-1.5 1.501-2.327 3.496-2.327 5.618 0 2.123.826 4.118 2.327 5.619.433.433.904.805 1.402 1.117 0 0 0 0 0 0-.362.094-.72.2-1.076.318-.305.102-.47.432-.368.737.102.305.432.47.737.367 3.175-1.06 6.672-1.06 9.846 0 .061.02.124.03.185.03.243 0 .47-.153.552-.397.102-.305-.063-.635-.368-.737-.355-.119-.714-.224-1.076-.318 0 0 0 0 0 0 .499-.312.97-.684 1.402-1.117.383-.383.721-.801 1.015-1.246.16.031.32.064.477.098.209.045.417.094.623.145-.006.026-.013.05-.018.077-.284 1.347-.266 2.538.054 3.541.288.901.808 1.631 1.544 2.17.868.635 1.916.91 2.865.91.715 0 1.374-.156 1.857-.43.547-.31 1.006-.963 1.369-1.944.168.196.326.397.476.602.608.832 1.072 1.75 1.379 2.727.18.573.628 1.025 1.198 1.207l1.638.525c.43.138.719.533.719.985v2.717c0 .451-.289.847-.719.984l-2.64.846c-.422.135-.78.426-1.006.817-1.037 1.793-2.668 3.276-4.847 4.409-.251.13-.426.365-.478.643l-.846 4.477c-.023.123-.131.212-.257.212h-2.749c-.125 0-.233-.09-.257-.212l-.468-2.475c-.092-.486-.549-.81-1.04-.735-1.184.179-2.404.27-3.626.27-.91 0-1.807-.051-2.668-.151-.477-.055-.92.27-1.01.74l-.444 2.35c-.024.124-.132.213-.257.213h-2.75c-.125 0-.233-.09-.256-.214l-.814-4.229c-.053-.272-.224-.504-.47-.635-3.714-1.983-5.678-5.296-5.678-9.58 0-2.165.474-4.079 1.408-5.69.871-1.503 2.144-2.745 3.783-3.693.279-.162.374-.518.213-.796s-.517-.373-.796-.212c-3.178 1.838-5.094 4.674-5.622 8.277h0l-.168-.016c.01-.389-.06-.781-.213-1.162-.338-.84-1.032-1.445-1.768-1.543-.58-.078-1.132.168-1.515.674-.555.734-.465 1.315-.291 1.673.293.604 1.047 1.032 2.297 1.3-.034.052-.072.103-.113.155-.74.927-1.61 1.132-2.175 1.151-.331.012-.596.277-.596.608v.003c0 .327.258.593.584.608.042.002.086.003.131.003.715 0 1.863-.264 2.966-1.647.174-.218.316-.448.425-.686.11.012.216.023.317.032 0 0 0 0 0 0-.02.315-.03.635-.03.96 0 2.425.577 4.586 1.717 6.425 1.05 1.695 2.555 3.083 4.473 4.127l.791 4.111c.127.672.716 1.16 1.4 1.16h2.75c.684 0 1.274-.488 1.4-1.16l.403-2.126c.836.089 1.7.134 2.575.134 1.2 0 2.4-.084 3.567-.249l.424 2.241c.128.673.717 1.16 1.401 1.16h2.75c.684 0 1.273-.487 1.4-1.16l.823-4.359c2.326-1.23 4.079-2.845 5.212-4.803.081-.14.207-.244.354-.291l2.64-.846c.913-.293 1.527-1.134 1.527-2.094V22.94c0-.96-.614-1.801-1.528-2.094zm-5.56-6.918c-.224 1.916-.825 3.555-1.429 3.897-.686.389-2.27.464-3.46-.407-1.192-.871-1.588-2.438-1.147-4.531 0 0 0 0 0 0 .044-.21.193-.393.4-.487 2.914-1.334 4.594-1.77 5.218-1.77.094 0 .164.01.211.028.188.2.434 1.336.207 3.27zM1.634 20.39c-.06-.125.082-.343.173-.462.142-.189.274-.227.374-.227.02 0 .04.001.058.004.268.035.643.33.841.824.047.116.108.309.122.549-.806-.167-1.432-.408-1.568-.688z" transform="translate(1 1)"/>
        <path d="M18.587 7.287V5.204c.719.051.986.38 1.232.38.308 0 .451-.39.451-.585 0-.503-.985-.718-1.683-.739v-.277c0-.123-.154-.236-.308-.236-.174 0-.297.113-.297.236v.297c-.975.103-1.95.616-1.95 1.91 0 1.313 1.026 1.682 1.95 2.01v2.412c-1.047-.082-1.324-.8-1.663-.8-.256 0-.472.338-.472.585 0 .503.862 1.19 2.135 1.21h0v.319c0 .123.123.236.297.236.154 0 .308-.113.308-.236v-.349c1.109-.154 1.868-.852 1.868-2.114 0-1.396-.975-1.847-1.868-2.176zm-.544-.195c-.544-.205-.985-.42-.985-1.005 0-.534.41-.79.985-.862v1.867h0zm.483 3.5V8.426c.503.216.903.503.903 1.15 0 .585-.35.913-.903 1.016z" transform="translate(1 1)"/>
    </g>
</svg>
