<svg xmlns="http://www.w3.org/2000/svg" width="42" height="41" viewBox="0 0 42 41">
    <g fill="#35B447" stroke="#35B447" stroke-width=".3">
        <path d="M13.123 27.068c1.647 2.323 3.292 4.4 4.382 5.738l.451.55h-3.289c-.368 0-.667.298-.667.666 0 .368.299.667.667.667h10.667c.368 0 .666-.299.666-.667 0-.368-.298-.667-.666-.667h-3.29c.144-.174.293-.354.452-.549 1.09-1.333 2.734-3.415 4.382-5.738 1.635-2.258 3.106-4.63 4.404-7.098 1.361-2.673 2.052-4.892 2.052-6.596.004-3.541-1.4-6.938-3.905-9.441-.167-.174-.415-.243-.648-.182-.233.06-.416.242-.477.475-.06.233.008.481.182.649 2.254 2.253 3.518 5.311 3.514 8.499 0 1.492-.641 3.507-1.906 5.99-1.268 2.411-2.707 4.728-4.304 6.934-1.626 2.293-3.25 4.347-4.327 5.667-.358.439-.68.826-.955 1.155-.128.146-.313.23-.508.23-.194 0-.38-.084-.508-.23-.274-.328-.596-.716-.954-1.155-1.077-1.32-2.702-3.374-4.327-5.667-1.598-2.206-3.036-4.523-4.304-6.933C8.64 16.88 8 14.865 8 13.374c0-4.83 2.888-9.19 7.334-11.074 2.987-1.253 6.352-1.253 9.34 0 .22.093.471.061.662-.082.19-.143.29-.378.26-.614-.03-.237-.182-.44-.402-.532-6.788-2.864-14.613.317-17.479 7.105-.695 1.644-1.051 3.412-1.048 5.197 0 1.704.69 3.923 2.052 6.6 1.297 2.466 2.769 4.837 4.404 7.094z" transform="translate(1 1)"/>
        <path d="M20 7.356c.368 0 .667-.299.667-.667 0-.368-.299-.667-.667-.667-3.18 0-5.918 2.247-6.538 5.366-.621 3.12 1.048 6.243 3.987 7.46 2.938 1.217 6.327.19 8.094-2.455 1.767-2.645 1.42-6.17-.829-8.418-.167-.173-.415-.243-.648-.182-.233.061-.415.243-.476.476-.061.233.008.481.182.649 1.799 1.799 2.077 4.618.663 6.734-1.414 2.115-4.125 2.938-6.475 1.964-2.351-.973-3.687-3.472-3.19-5.967.496-2.496 2.686-4.293 5.23-4.293zM39.749 36.403l-4.1-7.333c-.37-.652-1.064-1.053-1.814-1.048h-4.751c-.369 0-.667.299-.667.667 0 .368.298.666.667.666h4.75c.268-.005.517.134.652.364l4.099 7.334c.112.19.11.427-.006.616-.136.225-.383.36-.645.353H2.067c-.263.006-.509-.128-.645-.353-.115-.189-.117-.425-.006-.616l4.099-7.334c.135-.23.384-.369.65-.364h4.752c.368 0 .667-.298.667-.666 0-.368-.299-.667-.667-.667H6.166c-.75-.005-1.445.396-1.816 1.048l-4.1 7.333c-.34.604-.333 1.344.022 1.94.373.636 1.058 1.022 1.795 1.013h35.867c.736.009 1.42-.378 1.794-1.012.355-.597.363-1.337.02-1.941z" transform="translate(1 1)"/>
        <path d="M32.667 31.356H30c-.131 0-.26.039-.37.112l-2 1.333c-.306.204-.389.618-.184.925.204.306.618.389.924.184l1.83-1.221h2.467c.368 0 .667-.299.667-.667 0-.368-.299-.666-.667-.666zM28.667 36.022c0 .368.298.667.667.667h5.333c.368 0 .667-.299.667-.667 0-.368-.299-.666-.667-.666h-5.333c-.369 0-.667.298-.667.666zM12 34.022c.294 0 .554-.192.639-.473.085-.281-.024-.585-.268-.748l-2-1.334c-.11-.072-.239-.111-.37-.112H7.333c-.369 0-.667.299-.667.667 0 .368.298.667.667.667H9.8l1.832 1.221c.11.073.237.112.368.112zM5.334 35.356c-.369 0-.667.298-.667.666 0 .368.298.667.667.667h5.333c.368 0 .667-.299.667-.667 0-.368-.299-.666-.667-.666H5.334z" transform="translate(1 1)"/>
    </g>
</svg>
