<svg xmlns="http://www.w3.org/2000/svg" width="48" height="47" viewBox="0 0 48 47">
    <g fill="#FFF" fill-rule="evenodd">
        <path d="M36.715 28.669l9.572 9.394c1.764 1.731 1.764 5.58 0 7.311-1.764 1.731-5.685 1.731-7.449 0l-9.572-9.394c-2.804 1.545-6.04 2.426-9.485 2.426C9.063 38.406.375 29.88.375 19.36.375 8.84 9.063.312 19.781.312 30.5.313 39.188 8.84 39.188 19.36c0 3.382-.898 6.557-2.473 9.31zm-1.938 2.782c-.804.958-1.7 1.838-2.676 2.626l9.123 8.955c.446.437 2.231.437 2.677 0 .445-.437.445-2.19 0-2.626l-9.124-8.955zM19.78 35.094c8.854 0 16.032-7.045 16.032-15.735S28.634 3.625 19.78 3.625 3.75 10.67 3.75 19.359c0 8.69 7.177 15.735 16.031 15.735z"/>
        <path d="M18.517 17.867v-6.5c0-.874.71-1.583 1.584-1.583.874 0 1.583.709 1.583 1.583v6.5h6.5c.874 0 1.583.71 1.583 1.584 0 .874-.709 1.583-1.583 1.583h-6.5v6.5c0 .874-.709 1.583-1.583 1.583-.875 0-1.584-.709-1.584-1.583v-6.5h-6.5c-.874 0-1.583-.709-1.583-1.583 0-.875.709-1.584 1.583-1.584h6.5z"/>
    </g>
</svg>
