<svg xmlns="http://www.w3.org/2000/svg" width="41" height="41" viewBox="0 0 41 41">
    <g fill="#35B447" stroke="#35B447" stroke-width=".3">
        <path d="M36.797 25.384v-4.552c-.003-1.71-1.39-3.096-3.1-3.098H29.22v-5h3.438c.15-.007.289-.082.376-.204.088-.122.114-.278.073-.422L31.47 6.66c-.06-.198-.242-.333-.449-.332h-4.544c-.206-.002-.39.131-.45.328l-1.634 5.447c-.043.147-.016.304.073.428.087.123.226.198.376.204h3.438v5H6.771c-1.71.001-3.096 1.387-3.1 3.097v4.552c-1.63.1-2.899 1.457-2.89 3.09v7.159c0 .123.05.242.138.328.088.087.207.135.331.133h1.328v2.343c.01.263.228.47.49.47h5.303c.123-.001.24-.051.327-.14.086-.087.133-.206.13-.33v-2.343h22.813v2.343c-.003.124.044.243.13.33.086.089.204.139.327.14H37.4c.263 0 .48-.207.49-.47v-2.343h1.329c.123.002.242-.046.33-.133.089-.086.139-.205.139-.328v-7.159c.008-1.633-1.26-2.99-2.891-3.09zm-9.97-18.118h3.846l1.354 4.53h-6.554l1.354-4.53zM6.77 18.672h26.926c1.193.001 2.16.967 2.162 2.16v4.633c-1.376.35-2.34 1.59-2.343 3.01v1.447H6.953v-1.448c-.003-1.42-.967-2.658-2.344-3.01v-4.632c.003-1.193.97-2.16 2.162-2.16h0zm1.12 19.297H3.516v-1.875H7.89v1.875zm29.062 0h-4.375v-1.875h4.375v1.875zm1.797-2.813H1.719v-6.682c0-1.186.962-2.148 2.148-2.148 1.187 0 2.149.962 2.149 2.148v1.901c.01.266.226.479.493.484H33.96c.267-.005.483-.218.493-.484v-1.9c0-1.187.962-2.15 2.149-2.15 1.186 0 2.148.963 2.148 2.15v6.681z" transform="translate(1 1)"/>
        <path d="M16.563 15.331V3.877c0-.12-.05-.236-.138-.32-.088-.082-.206-.126-.326-.12h-4.213L8.615.152C8.53.059 8.409.007 8.283.007c-.126.001-.246.055-.33.149L4.68 3.437H.47c-.121-.006-.24.037-.328.12-.089.083-.14.199-.141.32v11.454c0 .123.051.24.14.324.088.085.206.13.329.126h15.63c.121.004.24-.041.327-.126.088-.085.137-.202.137-.324h0zM13.438 9.75l-3.3 1.538L6.122 8.55c-.17-.112-.392-.107-.557.013l-2.518 1.881V6.25h10.39v3.5zM3.046 11.616l2.817-2.102 3.976 2.699c.079.052.172.08.267.08.064 0 .126-.014.183-.043l3.148-1.467v2.186H3.046v-1.353zm10.715-6.303H2.788L1.66 4.375h13.223l-1.12.938zm-11.653.71v7.196L.938 14.29V4.96l1.171 1.064zm.68 7.883h10.972l1.075.938H1.706l1.083-.938zm11.586-.686V6.022l1.25-1.086v9.379l-1.25-1.095zM8.284 1.16l2.276 2.277H6.007l2.277-2.276z" transform="translate(1 1)"/>
        <path d="M9.873 9.86c.872 0 1.58-.708 1.58-1.58 0-.872-.708-1.58-1.58-1.58-.872 0-1.58.708-1.58 1.58.002.872.708 1.578 1.58 1.58zm0-2.221c.26 0 .494.156.593.396.1.24.044.516-.14.699-.183.184-.459.238-.699.14-.24-.1-.396-.334-.396-.594 0-.354.288-.641.642-.642h0zM27.093 23.55c-.296.525-.296 1.167 0 1.692l-.663.663c-.12.118-.17.292-.126.455.043.163.17.291.334.334.163.043.337-.005.455-.126l.663-.663c.525.296 1.166.296 1.692 0l.662.663c.183.183.48.183.663 0 .183-.183.183-.48 0-.663l-.663-.663c.293-.526.293-1.166 0-1.691l.663-.663c.183-.184.183-.48 0-.663-.183-.183-.48-.183-.663 0l-.662.662c-.525-.295-1.167-.295-1.692 0l-.663-.662c-.118-.121-.292-.17-.455-.127-.163.043-.291.17-.334.334-.043.164.005.338.126.456l.663.662zm1.509.053c.378 0 .704.267.778.639.074.37-.125.743-.474.887-.35.145-.753.023-.964-.292-.21-.315-.169-.734.099-1.002.148-.149.35-.233.56-.232h0zM18.499 23.55c-.296.525-.296 1.167 0 1.692l-.662.663c-.122.118-.17.292-.127.455.043.163.17.291.334.334.164.043.338-.005.455-.126l.663-.663c.525.296 1.167.296 1.692 0l.662.663c.184.183.48.183.663 0 .183-.183.184-.48 0-.663l-.663-.663c.294-.526.294-1.166 0-1.691l.663-.663c.184-.184.183-.48 0-.663-.183-.183-.48-.183-.663 0l-.662.662c-.525-.295-1.167-.295-1.692 0l-.663-.662c-.117-.121-.291-.17-.455-.127-.163.043-.29.17-.334.334-.043.164.005.338.127.456l.662.662zm1.509.053c.379 0 .704.267.778.639.074.37-.124.743-.474.887-.35.145-.753.023-.964-.292-.21-.315-.169-.734.1-1.002.148-.149.35-.233.56-.232h0zM9.905 23.55c-.295.525-.295 1.167 0 1.692l-.662.663c-.121.118-.17.292-.127.455.043.163.171.291.334.334.164.043.338-.005.456-.126l.662-.663c.525.296 1.167.296 1.692 0l.663.663c.183.183.48.183.663 0 .183-.183.183-.48 0-.663l-.663-.663c.293-.526.293-1.166 0-1.691l.663-.663c.118-.119.164-.292.121-.453-.043-.162-.17-.288-.331-.332-.162-.043-.335.003-.453.122l-.663.662c-.525-.295-1.166-.295-1.692 0l-.662-.662c-.118-.121-.292-.17-.456-.127-.163.043-.29.17-.334.334-.043.164.006.338.127.456l.662.662zm1.51.053c.378 0 .704.267.778.639.074.37-.125.743-.475.887-.35.145-.753.023-.963-.292-.21-.315-.17-.734.098-1.002.149-.149.35-.233.561-.232h0z" transform="translate(1 1)"/>
    </g>
</svg>
