<svg xmlns="http://www.w3.org/2000/svg" width="768" height="789" viewBox="0 0 768 789">
    <g fill="none" fill-rule="evenodd" stroke="#FFF" stroke-width=".85" opacity=".15">
        <path d="M743.03 468.21c38.868-60.43 28.518-139.974-24.52-188.527-72.336-66.209-183.464-66.2-255.79 0L230.03 508.51l232.69 228.826c72.326 66.21 183.454 66.21 255.79 0 53.038-48.553 63.388-128.097 24.52-188.527-15.793-24.565-15.793-56.043 0-80.598z" transform="translate(1 1)"/>
        <path d="M722.118 447.3c38.868-60.43 28.518-139.975-24.52-188.53-72.336-66.207-183.464-66.201-255.79 0l-232.69 228.826 232.69 228.829c72.326 66.209 183.454 66.209 255.79 0 53.038-48.556 63.388-128.098 24.52-188.53-15.79-24.563-15.79-56.04 0-80.595z" transform="translate(1 1)"/>
        <path d="M701.206 426.388c38.868-60.43 28.518-139.974-24.52-188.53-72.335-66.206-183.464-66.201-255.789 0l-232.69 228.826 232.69 228.826c72.325 66.21 183.454 66.21 255.79 0 53.037-48.553 63.387-128.095 24.52-188.527-15.791-24.563-15.791-56.04 0-80.595z" transform="translate(1 1)"/>
        <path d="M680.294 405.475c38.868-60.43 28.518-139.974-24.519-188.53-72.336-66.206-183.464-66.2-255.79 0l-232.69 228.827L399.984 674.6c72.326 66.209 183.454 66.209 255.79 0 53.037-48.556 63.387-128.098 24.52-188.53-15.791-24.563-15.791-56.04 0-80.596z" transform="translate(1 1)"/>
        <path d="M659.383 384.564c38.867-60.43 28.517-139.975-24.52-188.53-72.336-66.207-183.464-66.198-255.79 0l-232.69 228.829 232.69 228.823c72.326 66.21 183.454 66.21 255.79 0 53.037-48.553 63.387-128.095 24.52-188.527-15.79-24.563-15.79-56.04 0-80.595z" transform="translate(1 1)"/>
        <path d="M638.47 363.652c38.868-60.43 28.518-139.974-24.519-188.527-72.336-66.21-183.464-66.201-255.79 0L125.473 403.95l232.688 228.826c72.326 66.209 183.454 66.209 255.79 0 53.037-48.556 63.387-128.098 24.52-188.53-15.79-24.563-15.79-56.04 0-80.595z" transform="translate(1 1)"/>
        <path d="M617.559 342.74c38.868-60.43 28.517-139.974-24.52-188.527-72.336-66.21-183.464-66.201-255.79 0L104.561 383.039 337.25 611.865c72.326 66.209 183.454 66.209 255.79 0 53.037-48.556 63.388-128.097 24.52-188.53-15.79-24.563-15.79-56.04 0-80.595z" transform="translate(1 1)"/>
        <path d="M596.648 321.828c38.868-60.43 28.518-139.974-24.52-188.527-72.336-66.21-183.464-66.201-255.79 0L83.649 362.127l232.69 228.826c72.326 66.21 183.454 66.21 255.79 0 53.038-48.553 63.388-128.097 24.52-188.527-15.793-24.566-15.793-56.043 0-80.598z" transform="translate(1 1)"/>
        <path d="M575.736 300.917c38.868-60.43 28.518-139.977-24.52-188.53-72.336-66.206-183.464-66.2-255.79 0L62.737 341.215l232.69 228.826c72.326 66.209 183.454 66.209 255.79 0 53.038-48.553 63.388-128.095 24.52-188.527-15.793-24.563-15.793-56.041 0-80.596z" transform="translate(1 1)"/>
        <path d="M554.824 280.005c38.868-60.43 28.517-139.974-24.52-188.53-72.336-66.206-183.464-66.2-255.79 0L41.825 320.303l232.69 228.826c72.326 66.212 183.454 66.212 255.79 0 53.037-48.553 63.388-128.095 24.52-188.527-15.79-24.563-15.79-56.04 0-80.596z" transform="translate(1 1)"/>
        <path d="M533.912 259.093c38.868-60.43 28.518-139.974-24.52-188.53-72.336-66.206-183.464-66.2-255.79 0L20.913 299.39l232.69 228.829c72.326 66.209 183.454 66.209 255.79 0 53.038-48.556 63.388-128.098 24.52-188.53-15.79-24.563-15.79-56.04 0-80.596z" transform="translate(1 1)"/>
        <path d="M513 238.181c38.868-60.43 28.518-139.974-24.52-188.53-72.336-66.206-183.464-66.198-255.79 0L0 278.482l232.69 228.826c72.326 66.209 183.454 66.209 255.79 0 53.038-48.556 63.388-128.098 24.52-188.53-15.79-24.563-15.79-56.04 0-80.596z" transform="translate(1 1)"/>
    </g>
</svg>
