<svg xmlns="http://www.w3.org/2000/svg" width="488" height="502" viewBox="0 0 488 502">
    <g fill="none" fill-rule="evenodd" stroke="#74777A" stroke-width="1.021" opacity=".15">
        <path d="M471.144 298.38c24.635-38.3 18.075-88.714-15.54-119.487-45.848-41.963-116.282-41.958-162.123 0L146 323.922 293.481 468.95c45.841 41.963 116.275 41.963 162.122 0 33.616-30.773 40.176-81.188 15.541-119.488-10.01-15.57-10.01-35.52 0-51.082z" transform="translate(1 1)"/>
        <path d="M458.144 284.381c24.635-38.3 18.075-88.714-15.54-119.489-45.848-41.96-116.282-41.957-162.123 0L133 309.921l147.481 145.03c45.841 41.963 116.275 41.963 162.122 0 33.616-30.774 40.176-81.187 15.541-119.489-10.008-15.568-10.008-35.518 0-51.08z" transform="translate(1 1)"/>
        <path d="M444.144 271.382c24.635-38.3 18.075-88.715-15.54-119.49-45.848-41.96-116.282-41.957-162.123 0L119 296.923 266.481 441.95c45.841 41.963 116.275 41.963 162.122 0 33.616-30.773 40.176-81.186 15.541-119.488-10.008-15.568-10.008-35.518 0-51.081z" transform="translate(1 1)"/>
        <path d="M431.144 257.381c24.635-38.3 18.075-88.714-15.54-119.489-45.848-41.96-116.282-41.957-162.123 0L106 282.921l147.481 145.03c45.841 41.963 116.275 41.963 162.122 0 33.616-30.774 40.176-81.187 15.541-119.489-10.008-15.568-10.008-35.518 0-51.08z" transform="translate(1 1)"/>
        <path d="M418.144 245.382c24.635-38.3 18.075-88.716-15.54-119.49-45.848-41.961-116.282-41.956-162.123 0L93 270.923l147.481 145.028c45.841 41.963 116.275 41.963 162.122 0 33.616-30.773 40.176-81.186 15.541-119.488-10.008-15.568-10.008-35.519 0-51.081z" transform="translate(1 1)"/>
        <path d="M405.144 231.38c24.635-38.3 18.075-88.714-15.54-119.487-45.848-41.963-116.283-41.958-162.124 0L80 256.922 227.48 401.95c45.841 41.963 116.276 41.963 162.123 0 33.616-30.775 40.176-81.188 15.54-119.49-10.007-15.567-10.007-35.518 0-51.08z" transform="translate(1 1)"/>
        <path d="M391.144 218.38c24.635-38.3 18.075-88.714-15.54-119.487-45.848-41.963-116.283-41.958-162.124 0L66 243.922 213.48 388.95c45.841 41.963 116.276 41.963 162.123 0 33.616-30.775 40.176-81.188 15.54-119.49-10.007-15.567-10.007-35.518 0-51.08z" transform="translate(1 1)"/>
        <path d="M378.144 204.38c24.635-38.3 18.075-88.714-15.54-119.487-45.848-41.963-116.282-41.958-162.123 0L53 229.922 200.481 374.95c45.841 41.963 116.275 41.963 162.122 0 33.616-30.773 40.176-81.188 15.541-119.488-10.01-15.57-10.01-35.52 0-51.082z" transform="translate(1 1)"/>
        <path d="M365.144 192.382c24.635-38.3 18.075-88.717-15.54-119.49-45.848-41.96-116.282-41.957-162.123 0L40 217.923 187.481 362.95c45.841 41.963 116.275 41.963 162.122 0 33.616-30.773 40.176-81.186 15.541-119.488-10.01-15.568-10.01-35.518 0-51.081z" transform="translate(1 1)"/>
        <path d="M352.144 178.381c24.635-38.3 18.075-88.714-15.54-119.488-45.848-41.962-116.282-41.958-162.123 0L27 203.92l147.481 145.028c45.841 41.965 116.275 41.965 162.122 0 33.616-30.772 40.176-81.185 15.541-119.487-10.008-15.568-10.008-35.518 0-51.08z" transform="translate(1 1)"/>
        <path d="M338.144 165.381c24.635-38.3 18.075-88.714-15.54-119.489-45.848-41.96-116.282-41.957-162.123 0L13 190.921l147.481 145.03c45.841 41.963 116.275 41.963 162.122 0 33.616-30.774 40.176-81.187 15.541-119.489-10.008-15.568-10.008-35.518 0-51.08z" transform="translate(1 1)"/>
        <path d="M325.144 151.38c24.635-38.3 18.075-88.714-15.54-119.488-45.848-41.961-116.282-41.956-162.123 0L0 176.922l147.481 145.029c45.841 41.963 116.275 41.963 162.122 0 33.616-30.775 40.176-81.188 15.541-119.49-10.008-15.567-10.008-35.517 0-51.08z" transform="translate(1 1)"/>
    </g>
</svg>
