<svg xmlns="http://www.w3.org/2000/svg" width="33" height="18" viewBox="0 0 33 18">
    <defs>
        <linearGradient id="prefix__a" x1="65.291%" x2="30.151%" y1="50%" y2="50%">
            <stop offset="0%" stop-color="#A3F088"/>
            <stop offset="100%" stop-color="#7FDF5E"/>
        </linearGradient>
        <linearGradient id="prefix__b" x1="50%" x2="80.797%" y1="69.504%" y2="11.481%">
            <stop offset="0%" stop-color="#7FDF5E" stop-opacity="0"/>
            <stop offset="100%" stop-color="#24A856"/>
        </linearGradient>
    </defs>
    <g fill="none">
        <path fill="#F2F2F7" d="M6.924 17.823c1.268 0 2.385-.191 3.353-.573.967-.382 1.718-.93 2.255-1.646.536-.715.804-1.544.804-2.487 0-.877-.195-1.613-.585-2.206-.39-.593-1.012-1.09-1.865-1.487-.853-.399-2.003-.728-3.45-.988-1.544-.276-2.617-.605-3.218-.987S3.316 6.55 3.316 5.9c0-.7.309-1.272.926-1.72.618-.446 1.488-.67 2.609-.67 1.138 0 2.048.22 2.73.659.683.438 1.252 1.145 1.707 2.12l1.975-1.78c-.715-1.104-1.597-1.925-2.645-2.462-1.048-.536-2.312-.804-3.791-.804-1.268 0-2.377.22-3.328.658-.951.439-1.679 1.032-2.182 1.78C.813 4.43.56 5.259.56 6.169c0 .861.199 1.593.597 2.194.398.601 1.036 1.105 1.914 1.512.878.406 2.056.747 3.535 1.024 1.48.276 2.516.593 3.109.95.593.358.89.83.89 1.415 0 .731-.33 1.296-.988 1.694-.658.398-1.564.597-2.718.597-1.22 0-2.24-.227-3.06-.682-.82-.455-1.491-1.17-2.011-2.146L0 14.556c1.35 2.178 3.657 3.267 6.924 3.267z"/>
        <g>
            <path fill="url(#prefix__a)" d="M9.545 15.283c1.81 1.158 4.191.85 5.645-.73 1.982-2.155 1.982-5.466 0-7.62L8.338 0 1.487 6.932c-1.983 2.155-1.983 5.466 0 7.62 1.454 1.581 3.835 1.89 5.645.731.735-.47 1.678-.47 2.413 0z" transform="rotate(-90 16.9 1.009)"/>
            <path fill="url(#prefix__b)" d="M1.487 14.553c1.454 1.58 3.835 1.888 5.645.73.367-.235.787-.353 1.206-.353V0L1.487 6.932c-1.983 2.155-1.983 5.466 0 7.62z" transform="rotate(-90 16.9 1.009)"/>
        </g>
    </g>
</svg>
