<svg xmlns="http://www.w3.org/2000/svg" width="155" height="32" viewBox="0 0 155 32">
    <defs>
        <linearGradient id="prefix__a" x1="65.291%" x2="30.151%" y1="50%" y2="50%">
            <stop offset="0%" stop-color="#A3F088"/>
            <stop offset="100%" stop-color="#7FDF5E"/>
        </linearGradient>
        <linearGradient id="prefix__b" x1="50%" x2="80.797%" y1="69.504%" y2="11.481%">
            <stop offset="0%" stop-color="#7FDF5E" stop-opacity="0"/>
            <stop offset="100%" stop-color="#24A856"/>
        </linearGradient>
    </defs>
    <g fill="none">
        <path fill="#FFF" d="M5.75 22.808c1.053 0 1.981-.158 2.784-.476.803-.317 1.428-.772 1.873-1.366.445-.594.668-1.283.668-2.066 0-.728-.162-1.34-.486-1.832-.324-.493-.84-.904-1.549-1.235-.708-.33-1.663-.604-2.865-.82-1.282-.23-2.173-.503-2.672-.82-.5-.317-.75-.746-.75-1.286 0-.58.257-1.056.77-1.427s1.235-.557 2.166-.557c.945 0 1.701.182 2.268.547.567.364 1.04.951 1.417 1.761l1.64-1.478c-.593-.918-1.326-1.6-2.196-2.045-.871-.445-1.92-.668-3.149-.668-1.053 0-1.974.182-2.764.547-.79.364-1.393.857-1.812 1.478-.418.62-.627 1.31-.627 2.065 0 .715.165 1.323.496 1.822.33.5.86.918 1.59 1.256.728.337 1.707.62 2.935.85 1.228.23 2.089.493 2.581.79.493.297.74.688.74 1.174 0 .607-.274 1.076-.82 1.407-.547.33-1.3.496-2.258.496-1.012 0-1.86-.189-2.541-.567-.682-.378-1.239-.972-1.67-1.782L0 20.095c1.12 1.809 3.037 2.713 5.75 2.713zm18.324-.202v-1.863h-7.795v-3.969h5.871v-1.822H16.28v-3.847h7.511V9.243h-9.678v13.363h9.962zm5.062 0V17.26h2.875l3.401 5.346h2.49l-3.624-5.589c.905-.27 1.603-.725 2.096-1.366.493-.641.739-1.441.739-2.4 0-1.255-.418-2.237-1.255-2.946-.837-.708-1.978-1.062-3.422-1.062h-5.447v13.363h2.147zm3.118-7.148h-3.118v-4.373h3.118c.877 0 1.532.179 1.964.537.432.357.648.907.648 1.65 0 .742-.216 1.292-.648 1.65-.432.358-1.087.536-1.964.536zm18.303 7.148v-1.863h-7.795v-3.969h5.872v-1.822h-5.872v-3.847h7.512V9.243h-9.678v13.363h9.961zm4.9 0V13.98l-.081-2.267h.02l1.296 2.47 5.163 8.423h2.571V9.243h-2.004v8.625l.081 2.267h-.02l-1.316-2.49-5.143-8.402h-2.551v13.363h1.984zm17.635 0c2.106 0 3.74-.58 4.9-1.742 1.16-1.16 1.741-2.807 1.741-4.94 0-2.133-.58-3.78-1.741-4.94-1.16-1.161-2.794-1.741-4.9-1.741h-4.717v13.363h4.717zm0-1.843h-2.55v-9.678h2.55c1.404 0 2.484.422 3.24 1.265.756.844 1.134 2.035 1.134 3.574 0 1.539-.378 2.73-1.134 3.574-.756.843-1.836 1.265-3.24 1.265zm12.027 1.843V9.243h-2.166v13.363h2.166zm6.135 0v-5.042h2.976c1.445 0 2.589-.368 3.432-1.103.844-.736 1.266-1.752 1.266-3.048 0-1.295-.422-2.315-1.266-3.057-.843-.742-1.987-1.113-3.432-1.113h-5.143v13.363h2.167zm2.632-6.884h-2.632v-4.637h2.632c1.863 0 2.794.776 2.794 2.328 0 .77-.23 1.347-.688 1.732-.46.384-1.161.577-2.106.577zm10.063 6.884V9.243h-2.167v13.363h2.167zm4.616 0l1.276-3.503h5.629l1.255 3.503h2.288L113.97 9.243h-2.591l-5.042 13.363h2.227zm6.257-5.265h-4.354l1.58-4.333.567-1.883h.06l.608 1.924 1.539 4.292z"/>
        <g>
            <g>
                <path fill="url(#prefix__a)" d="M7.927 12.692c1.502.962 3.48.706 4.687-.607 1.647-1.79 1.647-4.539 0-6.328L6.924 0l-5.69 5.757c-1.646 1.79-1.646 4.539 0 6.328 1.208 1.313 3.186 1.569 4.689.607.61-.39 1.393-.39 2.004 0z" transform="translate(122.121) translate(9.177 17.493)"/>
                <path fill="url(#prefix__b)" d="M1.235 12.085c1.207 1.313 3.185 1.569 4.688.607.305-.195.653-.293 1.002-.293V0l-5.69 5.757c-1.647 1.79-1.647 4.539 0 6.328z" transform="translate(122.121) translate(9.177 17.493)"/>
            </g>
            <g>
                <path fill="url(#prefix__a)" d="M7.927 12.692c1.502.962 3.48.706 4.687-.607 1.647-1.79 1.647-4.539 0-6.328L6.924 0l-5.69 5.757c-1.646 1.79-1.646 4.539 0 6.328 1.208 1.313 3.186 1.569 4.689.607.61-.39 1.393-.39 2.004 0z" transform="translate(122.121) rotate(-180 11.513 7.208)"/>
                <path fill="url(#prefix__b)" d="M1.235 12.085c1.207 1.313 3.185 1.569 4.688.607.305-.195.653-.293 1.002-.293V0l-5.69 5.757c-1.647 1.79-1.647 4.539 0 6.328z" transform="translate(122.121) rotate(-180 11.513 7.208)"/>
            </g>
            <g>
                <path fill="url(#prefix__a)" d="M7.927 12.692c1.502.962 3.48.706 4.687-.607 1.647-1.79 1.647-4.539 0-6.328L6.924 0l-5.69 5.757c-1.646 1.79-1.646 4.539 0 6.328 1.208 1.313 3.186 1.569 4.689.607.61-.39 1.393-.39 2.004 0z" transform="translate(122.121) rotate(-90 20.26 2.62)"/>
                <path fill="url(#prefix__b)" d="M1.235 12.085c1.207 1.313 3.185 1.569 4.688.607.305-.195.653-.293 1.002-.293V0l-5.69 5.757c-1.647 1.79-1.647 4.539 0 6.328z" transform="translate(122.121) rotate(-90 20.26 2.62)"/>
            </g>
            <g>
                <path fill="url(#prefix__a)" d="M7.927 12.692c1.502.962 3.48.706 4.687-.607 1.647-1.79 1.647-4.539 0-6.328L6.924 0l-5.69 5.757c-1.646 1.79-1.646 4.539 0 6.328 1.208 1.313 3.186 1.569 4.689.607.61-.39 1.393-.39 2.004 0z" transform="translate(122.121) rotate(90 2.766 11.796)"/>
                <path fill="url(#prefix__b)" d="M1.235 12.085c1.207 1.313 3.185 1.569 4.688.607.305-.195.653-.293 1.002-.293V0l-5.69 5.757c-1.647 1.79-1.647 4.539 0 6.328z" transform="translate(122.121) rotate(90 2.766 11.796)"/>
            </g>
        </g>
    </g>
</svg>
