<svg xmlns="http://www.w3.org/2000/svg" width="62" height="20" viewBox="0 0 62 20">
    <g fill="none" fill-rule="evenodd" opacity=".7">
        <path fill="#DDDCDC" d="M0 0v20H16.38V3.752h-3.408v14.236h-1.707V3.752H7.856v14.236H6.254V13.75H3.75v4.237H2.014V0H0zm20 .8V20h-2.014V2.012H6.254v10.494H3.75V0H20v.8z"/>
        <g>
            <path fill="#DDDCDC" d="M12.627 10.711V.381h1.809l4.538 6.246L23.404.38h1.793v10.331h-2.07V4.328c0-.124.006-.28.022-.467.015-.19.037-.4.059-.638-.121.267-.227.487-.317.66-.094.174-.174.315-.246.425L19.027 9.47h-.444L14.955 4.29c-.134-.197-.249-.38-.342-.554-.093-.173-.17-.34-.233-.504.019.217.034.41.044.588.009.176.012.343.012.507v6.383h-1.809zM.115 10.711L.115.38 2.353.38 2.353 4.385 9.347 4.385 9.347.38 11.603.38 11.603 10.711 9.347 10.711 9.347 6.266 2.353 6.266 2.353 10.711zM30.529 6.587h4.221l-2.08-4.205-2.141 4.205zm-4.308 4.124L31.67.381h2.16l5.52 10.33h-2.514L35.68 8.45h-6.105l-1.122 2.262H26.22z" transform="translate(22)"/>
            <path fill="#FFF" d="M.369 15.984v1.747h.48c.12 0 .233-.023.34-.07.106-.045.199-.108.278-.187.08-.08.142-.172.187-.279.046-.106.068-.219.068-.339 0-.12-.022-.233-.068-.34-.045-.106-.107-.198-.187-.278-.08-.079-.172-.14-.279-.186-.106-.045-.22-.068-.34-.068H.37zm-.21-.105c0-.03.01-.055.03-.075.02-.02.045-.03.075-.03h.584c.15 0 .29.028.422.084.132.057.247.134.345.233.099.098.176.213.233.344.057.131.085.272.085.421 0 .15-.028.29-.085.422-.057.133-.134.248-.233.347-.098.098-.213.175-.345.232-.131.057-.272.085-.422.085H.264c-.03 0-.055-.01-.075-.03-.02-.021-.03-.046-.03-.075v-1.958zM3.52 17.012c-.013-.07-.038-.136-.074-.197-.036-.06-.081-.113-.134-.158-.054-.044-.114-.079-.18-.105-.067-.026-.138-.039-.213-.039-.075 0-.146.013-.212.04-.067.025-.127.06-.18.104-.054.045-.098.097-.133.158s-.06.127-.073.197h1.2zm-1.203.21c.012.073.035.14.072.202.036.063.08.116.134.161.053.046.114.081.182.107.068.026.14.04.214.04.084 0 .162-.016.235-.046.072-.03.137-.073.193-.128.02-.02.046-.03.075-.03.03 0 .055.01.075.03.02.02.03.046.03.075 0 .03-.01.054-.03.075-.075.083-.16.143-.253.178-.094.035-.203.052-.325.052-.113 0-.22-.02-.318-.06-.098-.041-.185-.098-.26-.17-.075-.073-.134-.159-.177-.258-.043-.1-.064-.208-.064-.326 0-.113.02-.219.063-.317.042-.099.1-.185.173-.258.074-.074.16-.132.262-.177.1-.044.21-.068.328-.072.106 0 .209.021.308.064.098.043.185.102.26.176.074.075.135.162.18.26.045.098.068.204.068.317 0 .034-.011.06-.034.078-.023.018-.047.028-.072.028H2.317zM3.891 16.724c0-.08.016-.146.048-.2.032-.055.074-.099.126-.133.052-.034.11-.058.177-.073.065-.015.131-.022.197-.022.054 0 .112.006.173.019.061.012.118.03.17.056.052.025.095.055.13.091.033.037.05.08.05.13 0 .024-.008.049-.025.072-.017.024-.045.036-.083.036-.043 0-.076-.025-.099-.075-.02-.043-.06-.075-.119-.097-.059-.021-.125-.032-.197-.032-.039 0-.078.003-.117.009-.04.005-.076.017-.107.034-.032.017-.059.04-.08.07-.022.029-.033.067-.033.115 0 .034.011.063.033.088.021.025.048.046.081.063s.07.03.109.039c.04.009.078.017.114.023.084.014.162.034.236.06.074.026.138.06.194.1.056.04.1.09.133.146.032.056.049.122.049.197 0 .074-.016.143-.048.205-.031.062-.075.115-.13.16-.056.043-.121.077-.196.101-.075.024-.154.036-.238.036-.143 0-.268-.033-.376-.099-.108-.065-.18-.156-.216-.271-.002-.007-.003-.017-.003-.03 0-.03.01-.056.029-.079.019-.022.044-.034.076-.034.025 0 .047.008.067.022.019.015.034.035.045.06.03.072.08.127.152.164.071.038.146.056.226.056.11 0 .206-.025.284-.076.078-.05.117-.123.117-.215 0-.075-.039-.138-.116-.19-.077-.052-.172-.086-.285-.102-.163-.023-.295-.067-.396-.134-.101-.067-.152-.164-.152-.29M6.642 17.124c0-.084-.016-.163-.047-.237-.032-.075-.076-.14-.131-.196-.056-.055-.121-.098-.196-.13-.075-.032-.154-.048-.238-.048-.084 0-.162.016-.236.048-.074.032-.138.075-.194.13-.056.056-.1.12-.13.196-.033.074-.048.153-.048.237 0 .084.015.162.047.236.032.073.075.138.131.193.056.056.12.1.194.13.074.033.152.048.236.048.082 0 .159-.015.231-.045.073-.03.137-.073.192-.128.056-.054.1-.118.133-.191.033-.074.052-.155.056-.243zm0 .51c-.075.083-.165.155-.27.215-.106.06-.22.09-.342.09-.113 0-.22-.02-.318-.062-.098-.04-.185-.097-.26-.17-.075-.072-.134-.158-.177-.257-.043-.1-.064-.208-.064-.326 0-.113.02-.22.063-.32.041-.101.1-.189.173-.264.074-.074.161-.133.262-.176.1-.043.21-.064.328-.064.109 0 .212.022.311.066.099.044.185.103.26.178.075.074.134.162.179.261.044.1.066.206.066.32v.715c0 .03-.01.054-.03.075-.021.02-.046.03-.075.03-.03 0-.055-.01-.075-.03-.02-.02-.03-.046-.03-.075v-.207zM7.077 16.398c0-.03.01-.054.031-.075.02-.02.045-.03.075-.03s.054.01.074.03c.02.02.031.046.031.075v.166c.073-.079.16-.144.262-.195.102-.05.213-.076.333-.076.036 0 .065.01.087.03.021.02.032.046.032.075 0 .03-.01.054-.032.075-.022.02-.05.03-.087.03-.081 0-.157.016-.228.048-.07.031-.132.074-.185.128-.053.055-.096.117-.13.187-.032.07-.05.144-.052.22v.75c0 .03-.01.055-.03.075-.02.02-.046.03-.075.03-.03 0-.055-.01-.075-.03-.02-.02-.03-.045-.03-.074v-1.44zM8.22 16.398c0-.03.01-.054.03-.075.02-.02.046-.03.075-.03.03 0 .055.01.075.03.02.02.03.046.03.075v.166c.073-.079.16-.144.262-.195.102-.05.213-.076.334-.076.036 0 .065.01.086.03.022.02.033.046.033.075 0 .03-.011.054-.033.075-.021.02-.05.03-.086.03-.082 0-.158.016-.228.048-.07.031-.132.074-.186.128-.053.055-.096.117-.129.187-.033.07-.05.144-.052.22v.75c0 .03-.01.055-.031.075-.02.02-.045.03-.075.03s-.054-.01-.075-.03c-.02-.02-.03-.045-.03-.074v-1.44zM10.012 16.513c-.084 0-.163.016-.237.048-.073.031-.138.075-.193.13-.056.056-.1.12-.131.196-.032.074-.048.153-.048.237 0 .084.016.162.048.236.031.073.075.138.13.193.056.056.12.1.194.13.074.033.153.048.237.048.083 0 .163-.015.238-.047.074-.032.14-.075.195-.13.056-.056.1-.12.131-.194.032-.074.048-.152.048-.236 0-.084-.016-.163-.048-.237-.032-.075-.075-.14-.13-.196-.056-.055-.122-.099-.196-.13-.075-.032-.155-.048-.238-.048m.006-.213c.11 0 .213.022.311.066.1.044.186.103.26.178.075.074.135.162.179.261.044.1.066.206.066.319 0 .11-.021.215-.064.314-.043.098-.102.185-.175.26-.074.074-.16.133-.26.176-.1.043-.208.064-.323.064-.114 0-.22-.02-.318-.06-.099-.041-.186-.098-.26-.17-.075-.073-.134-.159-.177-.258-.043-.1-.065-.208-.065-.326 0-.113.021-.219.063-.317.042-.099.1-.185.174-.258.073-.074.16-.133.261-.177.101-.044.21-.068.328-.072M11.049 15.879c0-.03.01-.055.03-.075.02-.02.046-.03.075-.03.03 0 .055.01.075.03.02.02.03.045.03.075v1.958c0 .029-.01.054-.03.074-.02.02-.045.03-.075.03s-.054-.01-.075-.03c-.02-.02-.03-.045-.03-.074v-1.958zM11.565 15.879c0-.03.01-.055.031-.075.02-.02.045-.03.075-.03s.054.01.075.03c.02.02.03.045.03.075v1.958c0 .029-.01.054-.03.074-.02.02-.046.03-.075.03-.03 0-.055-.01-.075-.03-.02-.02-.03-.045-.03-.074v-1.958zM13.429 17.124c0-.084-.016-.163-.048-.237-.032-.075-.075-.14-.13-.196-.056-.055-.122-.098-.196-.13-.075-.032-.154-.048-.238-.048-.084 0-.163.016-.237.048-.073.032-.138.075-.194.13-.055.056-.099.12-.13.196-.032.074-.048.153-.048.237 0 .084.016.162.048.236.031.073.075.138.13.193.056.056.12.1.194.13.074.033.153.048.237.048.081 0 .158-.015.23-.045.073-.03.137-.073.193-.128.055-.054.1-.118.133-.191.032-.074.051-.155.056-.243zm0 .51c-.075.083-.165.155-.27.215-.106.06-.22.09-.342.09-.114 0-.22-.02-.318-.062-.099-.04-.186-.097-.26-.17-.075-.072-.134-.158-.177-.257-.043-.1-.065-.208-.065-.326 0-.113.021-.22.063-.32.042-.101.1-.189.174-.264.073-.074.16-.133.261-.176.101-.043.21-.064.329-.064.108 0 .212.022.31.066.1.044.186.103.26.178.075.074.135.162.18.261.043.1.065.206.065.32v.715c0 .03-.01.054-.03.075-.02.02-.046.03-.075.03-.03 0-.054-.01-.075-.03-.02-.02-.03-.046-.03-.075v-.207zM15.251 17.124c-.004-.088-.023-.17-.056-.244-.033-.075-.077-.14-.13-.194-.055-.054-.119-.096-.191-.127-.073-.03-.15-.046-.231-.046-.084 0-.164.016-.239.048-.074.032-.14.075-.195.13-.056.056-.1.12-.13.196-.033.074-.049.153-.049.237 0 .084.016.162.048.236.032.073.075.138.13.193.056.056.122.1.196.13.075.033.155.048.239.048.083 0 .162-.015.236-.047.073-.032.138-.075.194-.13.055-.056.099-.12.13-.194.032-.074.048-.152.048-.236zm0-1.245c0-.03.01-.055.03-.075.021-.02.046-.03.076-.03.029 0 .054.01.074.03.02.02.03.045.03.075v1.958c0 .029-.01.054-.03.074-.02.02-.045.03-.074.03-.03 0-.055-.01-.075-.03-.02-.02-.03-.045-.03-.074v-.16l-.031.03c-.075.073-.163.13-.262.17-.1.041-.205.061-.316.061-.116 0-.224-.021-.324-.064s-.186-.102-.26-.176c-.073-.075-.132-.162-.175-.26-.043-.098-.064-.203-.064-.314 0-.113.022-.22.066-.319.044-.1.104-.187.178-.261.075-.075.162-.134.26-.178.1-.044.203-.066.312-.066.127.004.242.036.346.096.105.06.194.13.27.212v-.73zM16.455 16.513c-.084 0-.163.016-.236.048-.074.031-.139.075-.194.13-.056.056-.1.12-.131.196-.032.074-.048.153-.048.237 0 .084.016.162.048.236.031.073.075.138.13.193.056.056.12.1.195.13.073.033.152.048.236.048.084 0 .163-.015.238-.047.075-.032.14-.075.195-.13.056-.056.1-.12.131-.194.032-.074.048-.152.048-.236 0-.084-.016-.163-.048-.237-.032-.075-.075-.14-.13-.196-.056-.055-.121-.099-.196-.13-.075-.032-.154-.048-.238-.048m.007-.213c.108 0 .212.022.31.066.1.044.186.103.26.178.076.074.135.162.18.261.043.1.066.206.066.319 0 .11-.022.215-.065.314-.043.098-.101.185-.175.26-.074.074-.16.133-.26.176-.1.043-.208.064-.323.064-.114 0-.22-.02-.318-.06-.099-.041-.185-.098-.26-.17-.075-.073-.134-.159-.177-.258-.043-.1-.065-.208-.065-.326 0-.113.021-.219.063-.317.042-.099.1-.185.174-.258.073-.074.16-.133.262-.177.1-.044.21-.068.328-.072M17.44 16.398c0-.03.011-.054.031-.075.02-.02.046-.03.075-.03.03 0 .055.01.075.03.02.02.03.046.03.075v.166c.073-.079.16-.144.262-.195.102-.05.213-.076.334-.076.036 0 .065.01.086.03.022.02.033.046.033.075 0 .03-.011.054-.033.075-.021.02-.05.03-.086.03-.082 0-.158.016-.228.048-.07.031-.132.074-.185.128-.054.055-.097.117-.13.187-.033.07-.05.144-.052.22v.75c0 .03-.01.055-.031.075-.02.02-.045.03-.075.03s-.054-.01-.075-.03c-.02-.02-.03-.045-.03-.074v-1.44zM19.835 17.012c-.014-.07-.04-.136-.075-.197-.037-.06-.081-.113-.135-.158-.053-.044-.113-.079-.18-.105-.067-.026-.138-.039-.212-.039-.075 0-.146.013-.213.04-.067.025-.127.06-.18.104-.053.045-.097.097-.133.158-.035.061-.06.127-.073.197h1.2zm-1.204.21c.011.073.035.14.071.202.036.063.081.116.135.161.053.046.114.081.181.107.069.026.14.04.215.04.083 0 .162-.016.234-.046.073-.03.137-.073.194-.128.02-.02.045-.03.075-.03s.054.01.075.03c.02.02.03.046.03.075 0 .03-.01.054-.03.075-.075.083-.16.143-.254.178s-.202.052-.324.052c-.114 0-.22-.02-.318-.06-.099-.041-.186-.098-.26-.17-.075-.073-.134-.159-.177-.258-.043-.1-.065-.208-.065-.326 0-.113.021-.219.063-.317.042-.099.1-.185.174-.258.073-.074.16-.132.261-.177.101-.044.21-.068.329-.072.106 0 .209.021.307.064.099.043.186.102.26.176.075.075.135.162.18.26.046.098.069.204.069.317 0 .034-.012.06-.034.078-.023.018-.047.028-.072.028h-1.32zM20.205 16.724c0-.08.016-.146.048-.2.031-.055.073-.099.125-.133.053-.034.112-.058.177-.073.066-.015.132-.022.198-.022.054 0 .112.006.173.019.061.012.118.03.17.056.052.025.095.055.13.091.033.037.05.08.05.13 0 .024-.008.049-.025.072-.017.024-.045.036-.084.036-.043 0-.076-.025-.098-.075-.02-.043-.06-.075-.12-.097-.058-.021-.124-.032-.196-.032-.04 0-.078.003-.118.009-.04.005-.075.017-.107.034s-.058.04-.08.07c-.021.029-.032.067-.032.115 0 .034.01.063.032.088.022.025.049.046.082.063s.069.03.109.039c.04.009.077.017.114.023.083.014.162.034.236.06.073.026.138.06.194.1.055.04.1.09.132.146.033.056.05.122.05.197 0 .074-.016.143-.048.205s-.076.115-.131.16c-.056.043-.12.077-.196.101-.074.024-.154.036-.237.036-.143 0-.269-.033-.376-.099-.108-.065-.18-.156-.216-.271-.002-.007-.003-.017-.003-.03 0-.03.01-.056.028-.079.02-.022.045-.034.077-.034.025 0 .047.008.066.022.02.015.035.035.046.06.03.072.08.127.151.164.072.038.147.056.227.056.11 0 .205-.025.283-.076.079-.05.118-.123.118-.215 0-.075-.039-.138-.116-.19-.077-.052-.172-.086-.285-.102-.164-.023-.296-.067-.397-.134-.1-.067-.15-.164-.15-.29M23.67 17.124c-.005-.088-.024-.17-.057-.244-.032-.075-.076-.14-.13-.194-.055-.054-.118-.096-.19-.127-.073-.03-.15-.046-.232-.046-.084 0-.163.016-.238.048-.075.032-.14.075-.196.13-.055.056-.099.12-.13.196-.032.074-.048.153-.048.237 0 .084.016.162.048.236.031.073.075.138.13.193.056.056.121.1.196.13.075.033.154.048.238.048.084 0 .162-.015.236-.047.074-.032.138-.075.194-.13.056-.056.1-.12.131-.194.032-.074.048-.152.048-.236zm0-1.245c0-.03.01-.055.03-.075.02-.02.045-.03.075-.03s.054.01.075.03c.02.02.03.045.03.075v1.958c0 .029-.01.054-.03.074-.02.02-.046.03-.075.03-.03 0-.054-.01-.075-.03-.02-.02-.03-.045-.03-.074v-.16l-.031.03c-.075.073-.162.13-.262.17-.1.041-.205.061-.316.061-.116 0-.223-.021-.323-.064s-.187-.102-.26-.176c-.074-.075-.132-.162-.175-.26-.043-.098-.065-.203-.065-.314 0-.113.022-.22.066-.319.045-.1.104-.187.179-.261.075-.075.161-.134.26-.178.099-.044.202-.066.311-.066.127.004.243.036.347.096.104.06.194.13.269.212v-.73zM25.475 17.012c-.014-.07-.038-.136-.075-.197-.036-.06-.08-.113-.134-.158-.053-.044-.113-.079-.18-.105-.067-.026-.138-.039-.213-.039-.074 0-.145.013-.212.04-.067.025-.127.06-.18.104-.054.045-.098.097-.133.158s-.06.127-.073.197h1.2zm-1.204.21c.012.073.036.14.072.202.036.063.08.116.134.161.053.046.114.081.182.107.068.026.14.04.214.04.084 0 .162-.016.235-.046.073-.03.137-.073.194-.128.02-.02.045-.03.074-.03.03 0 .055.01.075.03.02.02.03.046.03.075 0 .03-.01.054-.03.075-.075.083-.16.143-.253.178-.094.035-.202.052-.325.052-.113 0-.219-.02-.318-.06-.098-.041-.185-.098-.26-.17-.075-.073-.134-.159-.176-.258-.044-.1-.065-.208-.065-.326 0-.113.02-.219.063-.317.042-.099.1-.185.173-.258.074-.074.161-.132.262-.177.1-.044.21-.068.328-.072.107 0 .21.021.308.064s.185.102.26.176c.075.075.135.162.18.26.045.098.068.204.068.317 0 .034-.011.06-.034.078-.023.018-.046.028-.071.028h-1.32zM26.77 15.984v.74h.45c.049 0 .097-.01.142-.03.045-.018.085-.045.119-.079.034-.034.06-.073.08-.117.02-.044.029-.092.029-.144 0-.05-.01-.097-.03-.143-.018-.045-.045-.085-.079-.118-.034-.034-.074-.061-.119-.08-.045-.02-.093-.03-.143-.03h-.449zm-.21-.102c0-.03.01-.055.03-.076.02-.022.046-.033.075-.033h.554c.082 0 .158.016.228.046s.132.073.185.126c.054.053.095.115.126.185.03.07.046.145.046.224 0 .079-.015.154-.046.225-.03.072-.072.133-.126.185-.053.052-.115.094-.185.124-.07.03-.146.046-.228.046h-.449v.903c0 .029-.01.054-.03.074-.02.02-.046.03-.075.03-.03 0-.054-.01-.075-.03-.02-.02-.03-.045-.03-.074v-1.955zM28.09 16.398c0-.03.01-.054.03-.075.02-.02.045-.03.075-.03s.054.01.075.03c.02.02.03.046.03.075v.166c.073-.079.16-.144.262-.195.102-.05.213-.076.333-.076.037 0 .065.01.087.03.022.02.032.046.032.075 0 .03-.01.054-.032.075-.022.02-.05.03-.087.03-.081 0-.157.016-.227.048-.07.031-.132.074-.186.128-.053.055-.096.117-.129.187-.033.07-.05.144-.053.22v.75c0 .03-.01.055-.03.075-.02.02-.046.03-.075.03-.03 0-.054-.01-.075-.03-.02-.02-.03-.045-.03-.074v-1.44zM29.881 16.513c-.083 0-.162.016-.236.048-.074.031-.138.075-.194.13-.055.056-.099.12-.13.196-.032.074-.048.153-.048.237 0 .084.016.162.047.236.032.073.076.138.131.193.056.056.12.1.194.13.074.033.153.048.236.048.084 0 .164-.015.238-.047.075-.032.14-.075.196-.13.055-.056.1-.12.13-.194.033-.074.048-.152.048-.236 0-.084-.015-.163-.047-.237-.032-.075-.076-.14-.131-.196-.056-.055-.12-.099-.196-.13-.074-.032-.154-.048-.238-.048m.007-.213c.11 0 .213.022.311.066.099.044.186.103.26.178.075.074.135.162.179.261.044.1.066.206.066.319 0 .11-.021.215-.064.314-.043.098-.102.185-.176.26-.073.074-.16.133-.26.176-.1.043-.207.064-.323.064-.113 0-.219-.02-.318-.06-.098-.041-.185-.098-.26-.17-.074-.073-.133-.159-.176-.258-.043-.1-.065-.208-.065-.326 0-.113.021-.219.063-.317.042-.099.1-.185.173-.258.074-.074.161-.133.262-.177.101-.044.21-.068.328-.072M31.83 16.357c.006-.018.019-.033.037-.044.018-.011.037-.017.058-.017.032 0 .057.01.076.032.02.022.03.045.03.07 0 .014-.004.027-.011.04l-.775 2.05c-.018.045-.05.068-.095.068-.032 0-.058-.01-.077-.032-.02-.022-.029-.046-.029-.073 0-.007 0-.013.002-.019l.005-.018.204-.557-.241-.66-.16-.434-.089-.24-.027-.078c-.007-.013-.01-.029-.01-.047 0-.03.008-.054.026-.073.017-.02.04-.029.073-.029.024 0 .046.006.064.017.018.011.03.026.038.044l.442 1.205.459-1.205zM33.479 17.012c-.014-.07-.039-.136-.075-.197-.036-.06-.081-.113-.134-.158-.054-.044-.114-.079-.18-.105-.067-.026-.138-.039-.213-.039-.075 0-.146.013-.213.04-.066.025-.127.06-.18.104-.053.045-.097.097-.132.158-.036.061-.06.127-.073.197h1.2zm-1.204.21c.011.073.035.14.071.202.037.063.082.116.135.161.053.046.114.081.182.107.068.026.14.04.214.04.084 0 .162-.016.235-.046.072-.03.137-.073.193-.128.02-.02.046-.03.075-.03.03 0 .054.01.075.03.02.02.03.046.03.075 0 .03-.01.054-.03.075-.075.083-.16.143-.253.178-.094.035-.203.052-.325.052-.113 0-.22-.02-.318-.06-.099-.041-.185-.098-.26-.17-.075-.073-.134-.159-.177-.258-.043-.1-.065-.208-.065-.326 0-.113.021-.219.063-.317.042-.099.1-.185.174-.258.074-.074.16-.132.262-.177.1-.044.21-.068.328-.072.106 0 .209.021.307.064.099.043.186.102.26.176.075.075.135.162.18.26.046.098.069.204.069.317 0 .034-.012.06-.034.078-.023.018-.047.028-.072.028h-1.319zM34.686 16.303c.09 0 .172.014.245.04.072.028.134.059.187.094.052.035.092.07.12.105.029.035.043.062.043.08 0 .025-.01.046-.03.064-.021.019-.044.028-.069.028-.03 0-.054-.01-.075-.031-.056-.05-.121-.09-.194-.12-.072-.031-.15-.046-.234-.046-.084 0-.163.016-.236.047-.074.032-.139.075-.194.13-.056.056-.1.121-.131.196-.032.075-.048.154-.048.237 0 .084.016.163.048.236.032.074.075.138.13.194.056.055.121.099.195.13.073.032.152.048.236.048.084 0 .162-.015.234-.046.073-.03.138-.073.194-.127.02-.02.046-.03.075-.03.027 0 .052.009.073.028.022.02.033.044.033.073 0 .018-.013.045-.04.08-.026.035-.065.07-.117.103-.052.034-.116.064-.192.088-.076.025-.163.038-.26.038-.113 0-.22-.02-.318-.061-.099-.041-.185-.097-.26-.17-.075-.072-.134-.158-.177-.258-.043-.1-.065-.208-.065-.326 0-.113.021-.218.063-.317.042-.098.1-.184.174-.258.073-.073.16-.132.262-.176.1-.044.21-.069.328-.073M35.62 15.879c0-.03.011-.055.031-.075.02-.02.046-.03.075-.03.03 0 .055.01.075.03.02.02.03.045.03.075v.414h.227c.03 0 .055.01.076.03.02.02.03.046.03.075 0 .03-.01.054-.03.075-.02.02-.046.03-.076.03h-.226v1.334c0 .029-.01.054-.03.074-.02.02-.045.03-.074.03-.029 0-.054-.01-.074-.03-.02-.02-.03-.045-.03-.074v-1.334h-.227c-.03 0-.055-.01-.075-.03-.02-.02-.031-.046-.031-.075 0-.03.01-.054.03-.075.021-.02.046-.03.075-.03h.225v-.414zM36.977 16.513c-.084 0-.162.016-.236.048-.074.031-.138.075-.194.13-.055.056-.099.12-.13.196-.032.074-.048.153-.048.237 0 .084.016.162.047.236.032.073.076.138.131.193.056.056.12.1.194.13.074.033.152.048.236.048.084 0 .164-.015.238-.047.075-.032.14-.075.196-.13.055-.056.099-.12.13-.194.032-.074.048-.152.048-.236 0-.084-.016-.163-.047-.237-.032-.075-.076-.14-.131-.196-.056-.055-.12-.099-.196-.13-.074-.032-.154-.048-.238-.048m.007-.213c.109 0 .213.022.311.066.099.044.186.103.26.178.075.074.135.162.179.261.044.1.066.206.066.319 0 .11-.021.215-.064.314-.043.098-.102.185-.176.26-.073.074-.16.133-.26.176-.1.043-.207.064-.323.064-.113 0-.219-.02-.317-.06-.1-.041-.186-.098-.26-.17-.075-.073-.134-.159-.177-.258-.043-.1-.065-.208-.065-.326 0-.113.021-.219.063-.317.042-.099.1-.185.173-.258.074-.074.161-.133.262-.177.1-.044.21-.068.328-.072M37.95 16.724c0-.08.016-.146.047-.2.032-.055.074-.099.126-.133.052-.034.111-.058.177-.073.066-.015.131-.022.197-.022.055 0 .112.006.174.019.06.012.117.03.17.056.052.025.095.055.129.091.034.037.05.08.05.13 0 .024-.008.049-.025.072-.017.024-.044.036-.083.036-.043 0-.076-.025-.099-.075-.02-.043-.06-.075-.119-.097-.059-.021-.124-.032-.197-.032-.038 0-.077.003-.117.009-.04.005-.076.017-.107.034-.032.017-.059.04-.08.07-.022.029-.032.067-.032.115 0 .034.01.063.032.088.021.025.049.046.081.063.033.017.07.03.11.039.039.009.077.017.113.023.084.014.163.034.236.06.074.026.139.06.194.1.056.04.1.09.133.146.033.056.05.122.05.197 0 .074-.017.143-.048.205-.032.062-.076.115-.131.16-.056.043-.121.077-.196.101-.075.024-.154.036-.238.036-.143 0-.268-.033-.376-.099-.107-.065-.18-.156-.215-.271-.003-.007-.004-.017-.004-.03 0-.03.01-.056.029-.079.02-.022.045-.034.077-.034.024 0 .047.008.066.022.02.015.034.035.046.06.03.072.08.127.151.164.071.038.147.056.226.056.111 0 .206-.025.284-.076.078-.05.117-.123.117-.215 0-.075-.038-.138-.115-.19-.077-.052-.172-.086-.286-.102-.163-.023-.295-.067-.396-.134-.1-.067-.151-.164-.151-.29" transform="translate(22)"/>
            <path fill="#DDDCDC" d="M0.115 14.015L39.486 14.015 39.486 13.359 0.115 13.359z" transform="translate(22)"/>
        </g>
    </g>
</svg>
